<?xml version="1.0" encoding="UTF-8" standalone="no"?>
<svg
   xmlns:dc="http://purl.org/dc/elements/1.1/"
   xmlns:cc="http://creativecommons.org/ns#"
   xmlns:rdf="http://www.w3.org/1999/02/22-rdf-syntax-ns#"
   xmlns:svg="http://www.w3.org/2000/svg"
   xmlns="http://www.w3.org/2000/svg"
   xmlns:sodipodi="http://sodipodi.sourceforge.net/DTD/sodipodi-0.dtd"
   xmlns:inkscape="http://www.inkscape.org/namespaces/inkscape"
   inkscape:version="1.0 (4035a4f, 2020-05-01)"
   sodipodi:docname="muxboy.svg"
   id="svg74"
   version="1.1"
   viewBox="0 0 384 512"
   role="img"
   class="svg-inline--fa fa-child fa-w-12"
   data-icon="child"
   data-prefix="fas"
   focusable="false"
   aria-hidden="true">
  <metadata
     id="metadata80">
    <rdf:RDF>
      <cc:Work
         rdf:about="">
        <dc:format>image/svg+xml</dc:format>
        <dc:type
           rdf:resource="http://purl.org/dc/dcmitype/StillImage" />
        <dc:title></dc:title>
      </cc:Work>
    </rdf:RDF>
  </metadata>
  <defs
     id="defs78" />
  <sodipodi:namedview
     inkscape:current-layer="svg74"
     inkscape:window-maximized="0"
     inkscape:window-y="26"
     inkscape:window-x="0"
     inkscape:cy="356.33876"
     inkscape:cx="279.07513"
     inkscape:zoom="1.3847656"
     showgrid="false"
     id="namedview76"
     inkscape:window-height="1054"
     inkscape:window-width="1920"
     inkscape:pageshadow="2"
     inkscape:pageopacity="0"
     guidetolerance="10"
     gridtolerance="10"
     objecttolerance="10"
     borderopacity="1"
     bordercolor="#666666"
     pagecolor="#ffffff" />
  <path
     d="M 192 0 C 152.235 0 120 32.235 120 72 C 120 111.764 152.235 144 192 144 C 231.765 144 264 111.764 264 72 C 264 32.235 231.765 0 192 0 z M 32 64 C 23.8105 64 15.621047 67.124547 9.3730469 73.373047 C -3.1239531 85.870047 -3.1239531 106.13191 9.3730469 118.62891 L 104 213.25391 L 104 274.26367 C 106.13557 273.85594 107.80394 273.01051 108.98242 271.70703 C 110.72332 269.81024 111.59375 266.76928 111.59375 262.58594 L 111.59375 226.37891 L 126.63867 226.37891 L 126.63867 263.40625 C 126.63867 270.5777 124.45507 276.073 120.08984 279.89258 C 116.29159 283.21604 110.9261 285.08981 104 285.52148 L 104 480 C 104 497.673 118.327 512 136 512 L 152 512 C 169.673 512 184 497.673 184 480 L 184 368 L 200 368 L 200 480 C 200 497.673 214.327 512 232 512 L 248 512 C 265.673 512 280 497.673 280 480 L 280 283.05469 C 278.10103 282.20862 276.42429 281.15763 274.97852 279.89258 C 270.63927 276.073 268.46875 270.58883 268.46875 263.44336 L 268.46875 226.37891 L 280 226.37891 L 280 213.25391 L 374.62695 118.62695 C 387.12395 106.12995 387.12395 85.870047 374.62695 73.373047 C 362.13095 60.876047 341.86905 60.876047 329.37305 73.373047 L 242.74414 160 L 141.25391 160 L 54.626953 73.373047 C 48.378953 67.124547 40.1895 64 32 64 z M 280 226.37891 L 280 283.05469 C 283.83458 284.76314 288.58898 285.62109 294.27148 285.62109 C 302.76809 285.62109 309.19923 283.71215 313.56445 279.89258 C 317.92968 276.073 320.11133 270.5777 320.11133 263.40625 L 320.11133 226.37891 L 305.06641 226.37891 L 305.06641 262.58594 C 305.06641 266.76928 304.19598 269.81024 302.45508 271.70703 C 300.74017 273.60383 298.01311 274.55273 294.27148 274.55273 C 290.4779 274.55273 287.7358 273.56459 286.04688 271.58984 C 284.35795 269.6151 283.51367 266.61338 283.51367 262.58594 L 283.51367 226.37891 L 280 226.37891 z M 104 285.52148 L 104 274.26367 C 103.02791 274.44927 101.96922 274.55273 100.79883 274.55273 C 97.005238 274.55273 94.263146 273.56459 92.574219 271.58984 C 90.885291 269.6151 90.041016 266.61338 90.041016 262.58594 L 90.041016 226.37891 L 74.996094 226.37891 L 74.996094 263.44336 C 74.996094 270.58883 77.166615 276.073 81.505859 279.89258 C 85.871087 283.71215 92.302225 285.62109 100.79883 285.62109 C 101.90242 285.62109 102.96611 285.58592 104 285.52148 z M 0.203125 226.37891 L 0.203125 284.41211 L 14.3125 284.41211 L 14.3125 245.55469 L 25.068359 270.77148 L 35.398438 270.77148 L 46.154297 245.55469 L 46.154297 284.41211 L 61.042969 284.41211 L 61.042969 226.37891 L 43.660156 226.37891 L 30.642578 255.49414 L 17.585938 226.37891 L 0.203125 226.37891 z M 134.62891 226.37891 L 151.89453 226.37891 L 163.97656 244.46289 L 176.41016 226.37891 L 192.97461 226.37891 L 172.70703 254.59766 L 193.28711 284.41211 L 175.98047 284.41211 L 163.4707 265.31445 L 150.72461 284.41211 L 134.19922 284.41211 L 154.7793 255.18164 L 134.62891 226.37891 z M 201.62695 226.37891 L 219.51562 226.37891 L 240.67969 259.625 L 240.67969 226.37891 L 254.39844 226.37891 L 254.39844 284.41211 L 239.97852 284.41211 L 215.3457 244.58008 L 215.3457 284.41211 L 201.62695 284.41211 L 201.62695 226.37891 z M 334.14258 226.37891 L 334.14258 284.41211 L 359.47656 284.41211 C 363.68589 284.41211 367.15455 284.0498 369.88281 283.32227 C 372.63706 282.59473 375.15681 281.37312 377.44336 279.6582 C 379.4181 278.20313 380.96474 276.3707 382.08203 274.16211 C 383.2253 271.95351 383.79688 269.44685 383.79688 266.64062 C 383.79688 262.76908 382.67989 259.6516 380.44531 257.28711 C 378.23671 254.92261 375.23499 253.3629 371.44141 252.60938 L 371.44141 252.29688 C 374.14369 251.10163 376.23574 249.43924 377.7168 247.30859 C 379.19786 245.15197 379.93945 242.67145 379.93945 239.86523 C 379.93945 237.44877 379.39209 235.3044 378.30078 233.43359 C 377.23546 231.53679 375.59923 230.0294 373.39062 228.91211 C 371.25998 227.84678 369.10254 227.1575 366.91992 226.8457 C 364.76329 226.5339 361.34695 226.37891 356.66992 226.37891 L 334.14258 226.37891 z M 349.03125 237.01953 L 350.43359 237.01953 C 353.36973 237.01953 355.64488 237.04572 357.25586 237.09766 C 358.89282 237.12364 360.25635 237.34403 361.34766 237.75977 C 362.56888 238.22747 363.41316 238.94095 363.88086 239.90234 C 364.37455 240.86373 364.62109 241.82572 364.62109 242.78711 C 364.62109 244.03432 364.41378 245.13822 363.99805 246.09961 C 363.58231 247.03502 362.6988 247.80277 361.34766 248.40039 C 360.38627 248.84211 359.0731 249.10174 357.41016 249.17969 C 355.74722 249.25764 353.73364 249.29688 351.36914 249.29688 L 349.03125 249.29688 L 349.03125 237.01953 z M 349.03125 259.3125 L 352.30469 259.3125 C 354.53927 259.3125 356.68363 259.32556 358.73633 259.35156 C 360.78902 259.37755 362.3991 259.56065 363.56836 259.89844 C 365.28327 260.39212 366.49181 261.14485 367.19336 262.1582 C 367.92089 263.14558 368.28516 264.56142 368.28516 266.40625 C 368.28516 267.80936 367.98629 269.05712 367.38867 270.14844 C 366.81704 271.21376 365.75237 272.07112 364.19336 272.7207 C 362.66033 273.37028 360.9829 273.70837 359.16406 273.73438 C 357.34522 273.76038 354.33237 273.77344 350.12305 273.77344 L 349.03125 273.77344 L 349.03125 259.3125 z "
     id="path72" />
  <g
     style="font-style:normal;font-weight:normal;font-size:79.8213px;line-height:1.25;font-family:sans-serif;fill:#000000;fill-opacity:1;stroke:none;stroke-width:1.99554"
     id="text84"
     aria-label="MUXNUB" />
</svg>
