M48
; DRILL file {KiCad (5.1.6-0-10_14)} date Sunday, June 28, 2020 at 08:50:19 PM
; FORMAT={-:-/ absolute / inch / decimal}
; #@! TF.CreationDate,2020-06-28T20:50:19+01:00
; #@! TF.GenerationSoftware,Kicad,Pcbnew,(5.1.6-0-10_14)
; #@! TF.FileFunction,Plated,1,2,PTH
FMAT,2
INCH
T1C0.0276
T2C0.0315
T3C0.0354
T4C0.0433
T5C0.0440
%
G90
G05
T1
X6.5Y-3.5
X6.3Y-3.75
X6.3Y-3.0
X6.5Y-3.0
X6.3Y-3.25
X6.5Y-3.25
X6.3Y-3.5
X6.5Y-3.75
T2
X5.5Y-2.6
X5.5787Y-2.6
X5.6575Y-2.6
X5.7362Y-2.6
X5.815Y-2.6
X5.8937Y-2.6
X5.9724Y-2.6
X6.0512Y-2.6
T3
X5.95Y-3.0
X6.05Y-3.0
X5.95Y-3.25
X6.05Y-3.25
X5.95Y-3.75
X6.05Y-3.75
X5.95Y-3.5
X6.05Y-3.5
T4
X4.95Y-4.05
X4.95Y-4.2272
X5.2059Y-4.05
X5.2059Y-4.2272
X4.95Y-2.6
X4.95Y-2.7772
X5.2059Y-2.6
X5.2059Y-2.7772
X4.95Y-3.55
X4.95Y-3.7272
X5.2059Y-3.55
X5.2059Y-3.7272
X4.9441Y-3.05
X4.9441Y-3.2272
X5.2Y-3.05
X5.2Y-3.2272
T5
X5.45Y-3.05
X5.45Y-3.15
X5.45Y-3.25
X5.45Y-3.35
X5.45Y-3.45
X5.45Y-3.55
X5.45Y-3.65
X5.45Y-3.75
X5.75Y-3.05
X5.75Y-3.15
X5.75Y-3.25
X5.75Y-3.35
X5.75Y-3.45
X5.75Y-3.55
X5.75Y-3.65
X5.75Y-3.75
T0
M30
