%TF.GenerationSoftware,KiCad,Pcbnew,(5.1.6-0-10_14)*%
%TF.CreationDate,2020-06-28T20:47:41+01:00*%
%TF.ProjectId,mux-control,6d75782d-636f-46e7-9472-6f6c2e6b6963,rev?*%
%TF.SameCoordinates,Original*%
%TF.FileFunction,Legend,Bot*%
%TF.FilePolarity,Positive*%
%FSLAX46Y46*%
G04 Gerber Fmt 4.6, Leading zero omitted, Abs format (unit mm)*
G04 Created by KiCad (PCBNEW (5.1.6-0-10_14)) date 2020-06-28 20:47:41*
%MOMM*%
%LPD*%
G01*
G04 APERTURE LIST*
%ADD10C,0.010000*%
G04 APERTURE END LIST*
D10*
%TO.C,G\u002A\u002A\u002A*%
G36*
X171132535Y-86973064D02*
G01*
X170634226Y-88550795D01*
X169734616Y-89983971D01*
X168433707Y-91189596D01*
X167604581Y-91695941D01*
X165859992Y-92327973D01*
X164083262Y-92464968D01*
X162356743Y-92134228D01*
X160762786Y-91363054D01*
X159383741Y-90178746D01*
X158304055Y-88612661D01*
X157962422Y-87580436D01*
X157788080Y-86268611D01*
X157792290Y-84909050D01*
X157986316Y-83733621D01*
X158056666Y-83519878D01*
X158922173Y-81902757D01*
X160141117Y-80616110D01*
X161625093Y-79694188D01*
X163285695Y-79171238D01*
X165034518Y-79081510D01*
X166783156Y-79459254D01*
X167604581Y-79820900D01*
X169112772Y-80876484D01*
X170219663Y-82202488D01*
X170925254Y-83715915D01*
X171229545Y-85333772D01*
X171132535Y-86973064D01*
G37*
X171132535Y-86973064D02*
X170634226Y-88550795D01*
X169734616Y-89983971D01*
X168433707Y-91189596D01*
X167604581Y-91695941D01*
X165859992Y-92327973D01*
X164083262Y-92464968D01*
X162356743Y-92134228D01*
X160762786Y-91363054D01*
X159383741Y-90178746D01*
X158304055Y-88612661D01*
X157962422Y-87580436D01*
X157788080Y-86268611D01*
X157792290Y-84909050D01*
X157986316Y-83733621D01*
X158056666Y-83519878D01*
X158922173Y-81902757D01*
X160141117Y-80616110D01*
X161625093Y-79694188D01*
X163285695Y-79171238D01*
X165034518Y-79081510D01*
X166783156Y-79459254D01*
X167604581Y-79820900D01*
X169112772Y-80876484D01*
X170219663Y-82202488D01*
X170925254Y-83715915D01*
X171229545Y-85333772D01*
X171132535Y-86973064D01*
G36*
X156228251Y-90055876D02*
G01*
X156109429Y-90259260D01*
X155890680Y-90453856D01*
X155712471Y-90170550D01*
X155552130Y-89558930D01*
X155710109Y-89353329D01*
X155942631Y-89404891D01*
X156300322Y-89653055D01*
X156228251Y-90055876D01*
G37*
X156228251Y-90055876D02*
X156109429Y-90259260D01*
X155890680Y-90453856D01*
X155712471Y-90170550D01*
X155552130Y-89558930D01*
X155710109Y-89353329D01*
X155942631Y-89404891D01*
X156300322Y-89653055D01*
X156228251Y-90055876D01*
G36*
X156597650Y-86755710D02*
G01*
X156120469Y-87213325D01*
X155924911Y-87322056D01*
X155326551Y-87571607D01*
X155068689Y-87542188D01*
X155008017Y-87182593D01*
X155006842Y-86994016D01*
X155195745Y-86425529D01*
X155817520Y-86022238D01*
X156412590Y-85833278D01*
X156766014Y-85826778D01*
X156777722Y-85835968D01*
X156852384Y-86234469D01*
X156597650Y-86755710D01*
G37*
X156597650Y-86755710D02*
X156120469Y-87213325D01*
X155924911Y-87322056D01*
X155326551Y-87571607D01*
X155068689Y-87542188D01*
X155008017Y-87182593D01*
X155006842Y-86994016D01*
X155195745Y-86425529D01*
X155817520Y-86022238D01*
X156412590Y-85833278D01*
X156766014Y-85826778D01*
X156777722Y-85835968D01*
X156852384Y-86234469D01*
X156597650Y-86755710D01*
G36*
X155086439Y-88556097D02*
G01*
X154859541Y-88523567D01*
X154531564Y-88264605D01*
X154502205Y-87986647D01*
X154710868Y-87897368D01*
X155005055Y-88109538D01*
X155098304Y-88284804D01*
X155086439Y-88556097D01*
G37*
X155086439Y-88556097D02*
X154859541Y-88523567D01*
X154531564Y-88264605D01*
X154502205Y-87986647D01*
X154710868Y-87897368D01*
X155005055Y-88109538D01*
X155098304Y-88284804D01*
X155086439Y-88556097D01*
G36*
X155672489Y-81240856D02*
G01*
X155507761Y-81745465D01*
X155431783Y-81935880D01*
X155170333Y-81906681D01*
X154586594Y-81755482D01*
X153860740Y-81538063D01*
X153172944Y-81310202D01*
X152703381Y-81127680D01*
X152600526Y-81059362D01*
X152837035Y-80985441D01*
X153423374Y-80944635D01*
X153603158Y-80942138D01*
X154459629Y-80893733D01*
X155192212Y-80780897D01*
X155237809Y-80769310D01*
X155683980Y-80702847D01*
X155752302Y-80943963D01*
X155672489Y-81240856D01*
G37*
X155672489Y-81240856D02*
X155507761Y-81745465D01*
X155431783Y-81935880D01*
X155170333Y-81906681D01*
X154586594Y-81755482D01*
X153860740Y-81538063D01*
X153172944Y-81310202D01*
X152703381Y-81127680D01*
X152600526Y-81059362D01*
X152837035Y-80985441D01*
X153423374Y-80944635D01*
X153603158Y-80942138D01*
X154459629Y-80893733D01*
X155192212Y-80780897D01*
X155237809Y-80769310D01*
X155683980Y-80702847D01*
X155752302Y-80943963D01*
X155672489Y-81240856D01*
G36*
X156671740Y-83698738D02*
G01*
X156262038Y-84063602D01*
X155623794Y-84150116D01*
X155238043Y-84237408D01*
X155041848Y-84586955D01*
X154955373Y-85255036D01*
X154846391Y-85991802D01*
X154563059Y-86408891D01*
X153953879Y-86720875D01*
X153907289Y-86739495D01*
X153373385Y-86928445D01*
X152953907Y-86954579D01*
X152485720Y-86775975D01*
X151805692Y-86350711D01*
X151444324Y-86106565D01*
X150689404Y-85570213D01*
X150148002Y-85140337D01*
X149937051Y-84909800D01*
X149937035Y-84909546D01*
X150179341Y-84810802D01*
X150836958Y-84697484D01*
X151791470Y-84587831D01*
X152328755Y-84541193D01*
X153598545Y-84418746D01*
X154433122Y-84256973D01*
X154931933Y-84007380D01*
X155194424Y-83621473D01*
X155315434Y-83084737D01*
X155571503Y-82497872D01*
X156006384Y-82295014D01*
X156441835Y-82486784D01*
X156686432Y-83003057D01*
X156671740Y-83698738D01*
G37*
X156671740Y-83698738D02*
X156262038Y-84063602D01*
X155623794Y-84150116D01*
X155238043Y-84237408D01*
X155041848Y-84586955D01*
X154955373Y-85255036D01*
X154846391Y-85991802D01*
X154563059Y-86408891D01*
X153953879Y-86720875D01*
X153907289Y-86739495D01*
X153373385Y-86928445D01*
X152953907Y-86954579D01*
X152485720Y-86775975D01*
X151805692Y-86350711D01*
X151444324Y-86106565D01*
X150689404Y-85570213D01*
X150148002Y-85140337D01*
X149937051Y-84909800D01*
X149937035Y-84909546D01*
X150179341Y-84810802D01*
X150836958Y-84697484D01*
X151791470Y-84587831D01*
X152328755Y-84541193D01*
X153598545Y-84418746D01*
X154433122Y-84256973D01*
X154931933Y-84007380D01*
X155194424Y-83621473D01*
X155315434Y-83084737D01*
X155571503Y-82497872D01*
X156006384Y-82295014D01*
X156441835Y-82486784D01*
X156686432Y-83003057D01*
X156671740Y-83698738D01*
G36*
X150512431Y-96054465D02*
G01*
X149968462Y-95892630D01*
X149255405Y-95627279D01*
X148531626Y-95318369D01*
X147955492Y-95025860D01*
X147859113Y-94966289D01*
X147387704Y-94437336D01*
X147253158Y-93639626D01*
X147298107Y-93013921D01*
X147528786Y-92758362D01*
X148073280Y-92710000D01*
X148631226Y-92761471D01*
X148780865Y-92982983D01*
X148723121Y-93246509D01*
X148726175Y-93702820D01*
X149130639Y-94105561D01*
X149359666Y-94246072D01*
X149998157Y-94762257D01*
X150507034Y-95424989D01*
X150728265Y-96025747D01*
X150728947Y-96052825D01*
X150512431Y-96054465D01*
G37*
X150512431Y-96054465D02*
X149968462Y-95892630D01*
X149255405Y-95627279D01*
X148531626Y-95318369D01*
X147955492Y-95025860D01*
X147859113Y-94966289D01*
X147387704Y-94437336D01*
X147253158Y-93639626D01*
X147298107Y-93013921D01*
X147528786Y-92758362D01*
X148073280Y-92710000D01*
X148631226Y-92761471D01*
X148780865Y-92982983D01*
X148723121Y-93246509D01*
X148726175Y-93702820D01*
X149130639Y-94105561D01*
X149359666Y-94246072D01*
X149998157Y-94762257D01*
X150507034Y-95424989D01*
X150728265Y-96025747D01*
X150728947Y-96052825D01*
X150512431Y-96054465D01*
G36*
X160149614Y-73661699D02*
G01*
X159877750Y-74234237D01*
X159401561Y-75044217D01*
X158789304Y-75994829D01*
X158109233Y-76989262D01*
X157429603Y-77930704D01*
X156818668Y-78722343D01*
X156344684Y-79267368D01*
X156075905Y-79468968D01*
X156058603Y-79464316D01*
X155701825Y-79427981D01*
X154940562Y-79450139D01*
X153900377Y-79518614D01*
X152706832Y-79621230D01*
X151485488Y-79745810D01*
X150361908Y-79880177D01*
X149461653Y-80012155D01*
X148910286Y-80129568D01*
X148820933Y-80166202D01*
X148625819Y-80495291D01*
X148759893Y-80974929D01*
X149055876Y-81342701D01*
X149654747Y-81695135D01*
X150646300Y-82078900D01*
X151282937Y-82286323D01*
X153536315Y-82993376D01*
X151374415Y-83196683D01*
X149212515Y-83399991D01*
X149282562Y-84900700D01*
X149354944Y-85793682D01*
X149532132Y-86357904D01*
X149911858Y-86799297D01*
X150346480Y-87142458D01*
X151340352Y-87883508D01*
X150137461Y-88399127D01*
X149202764Y-88914284D01*
X148716141Y-89508472D01*
X148590000Y-90195455D01*
X148664005Y-90409200D01*
X148969218Y-90389769D01*
X149592631Y-90147470D01*
X150542076Y-89753008D01*
X151548823Y-89353410D01*
X151669973Y-89306938D01*
X152744682Y-88897165D01*
X154246535Y-89949216D01*
X154993260Y-90535321D01*
X155714417Y-91255120D01*
X156492932Y-92205048D01*
X157411730Y-93481537D01*
X157897706Y-94195107D01*
X158873968Y-95672149D01*
X159566239Y-96803215D01*
X160007790Y-97672778D01*
X160231894Y-98365313D01*
X160271821Y-98965293D01*
X160160845Y-99557192D01*
X160094416Y-99772314D01*
X159470497Y-100893198D01*
X158521254Y-101668033D01*
X157365101Y-102049166D01*
X156120452Y-101988945D01*
X155323400Y-101692279D01*
X154937903Y-101378533D01*
X154401189Y-100794943D01*
X153776446Y-100029913D01*
X153126860Y-99171844D01*
X152515622Y-98309140D01*
X152005917Y-97530201D01*
X151660934Y-96923431D01*
X151543861Y-96577231D01*
X151641277Y-96540843D01*
X152582982Y-96849944D01*
X153178037Y-96889773D01*
X153543354Y-96657613D01*
X153648031Y-96494206D01*
X153876238Y-96015221D01*
X153937368Y-95817732D01*
X153702577Y-95677103D01*
X153081620Y-95429057D01*
X152199623Y-95122779D01*
X152024617Y-95065847D01*
X151004307Y-94710543D01*
X150371180Y-94397705D01*
X149993288Y-94041558D01*
X149751985Y-93588489D01*
X149510659Y-92973956D01*
X149394066Y-92604451D01*
X149392105Y-92584903D01*
X149569493Y-92454730D01*
X150127633Y-92499525D01*
X151105489Y-92726176D01*
X152542025Y-93141570D01*
X152542931Y-93141846D01*
X153637199Y-93468229D01*
X154335889Y-93642189D01*
X154753111Y-93673055D01*
X155002973Y-93570154D01*
X155188438Y-93358113D01*
X155469891Y-92908107D01*
X155541579Y-92711525D01*
X155305922Y-92561466D01*
X154684108Y-92307057D01*
X153803871Y-91991799D01*
X152792942Y-91659194D01*
X151779057Y-91352742D01*
X150889948Y-91115945D01*
X150782623Y-91090810D01*
X149778184Y-91024023D01*
X148782486Y-91219236D01*
X147994890Y-91622377D01*
X147716834Y-91922325D01*
X147326825Y-92335025D01*
X147055159Y-92442631D01*
X146946361Y-92326997D01*
X146862049Y-91946989D01*
X146799716Y-91252956D01*
X146756855Y-90195242D01*
X146730958Y-88724194D01*
X146719520Y-86790157D01*
X146718421Y-85773070D01*
X146718421Y-79103509D01*
X147988421Y-79015392D01*
X148728468Y-78954312D01*
X148994684Y-78881000D01*
X148847112Y-78752826D01*
X148550139Y-78616565D01*
X147704531Y-78022983D01*
X147171810Y-77203240D01*
X146994901Y-76298933D01*
X147216728Y-75451661D01*
X147484127Y-75100083D01*
X147882638Y-74845498D01*
X148601480Y-74502546D01*
X149504781Y-74123265D01*
X150456674Y-73759692D01*
X151321288Y-73463864D01*
X151962753Y-73287818D01*
X152241028Y-73278221D01*
X152180489Y-73547208D01*
X151796316Y-73993132D01*
X151215889Y-74505652D01*
X150566591Y-74974429D01*
X149975804Y-75289123D01*
X149881387Y-75322172D01*
X148927712Y-75724407D01*
X148481120Y-76200013D01*
X148515562Y-76780956D01*
X148580853Y-76918172D01*
X148976259Y-77353193D01*
X149296813Y-77470000D01*
X149584163Y-77605534D01*
X149562319Y-78086464D01*
X149549680Y-78138421D01*
X149498784Y-78632034D01*
X149772240Y-78797180D01*
X149987678Y-78806842D01*
X150506337Y-78725515D01*
X151347790Y-78513184D01*
X152361222Y-78217319D01*
X153395817Y-77885392D01*
X154300760Y-77564877D01*
X154925233Y-77303244D01*
X155098453Y-77198135D01*
X155164293Y-76832832D01*
X155031328Y-76446280D01*
X154876250Y-76195488D01*
X154673065Y-76074887D01*
X154312991Y-76094407D01*
X153687246Y-76263976D01*
X152687046Y-76593523D01*
X152416404Y-76684944D01*
X151387973Y-77029125D01*
X150569386Y-77296576D01*
X150078985Y-77448950D01*
X149993684Y-77470000D01*
X150054237Y-77258795D01*
X150314913Y-76712975D01*
X150606396Y-76160116D01*
X151106994Y-75348419D01*
X151605991Y-74876005D01*
X152289407Y-74581416D01*
X152494662Y-74521158D01*
X153305952Y-74229415D01*
X153625289Y-73904880D01*
X153493899Y-73474005D01*
X153250857Y-73172115D01*
X153046460Y-72877651D01*
X153051312Y-72556426D01*
X153306165Y-72072330D01*
X153788123Y-71377715D01*
X154754554Y-70277343D01*
X155764238Y-69661809D01*
X156910982Y-69483609D01*
X157444484Y-69526187D01*
X158581726Y-69914250D01*
X159489227Y-70668996D01*
X160087878Y-71669483D01*
X160298565Y-72794769D01*
X160149614Y-73661699D01*
G37*
X160149614Y-73661699D02*
X159877750Y-74234237D01*
X159401561Y-75044217D01*
X158789304Y-75994829D01*
X158109233Y-76989262D01*
X157429603Y-77930704D01*
X156818668Y-78722343D01*
X156344684Y-79267368D01*
X156075905Y-79468968D01*
X156058603Y-79464316D01*
X155701825Y-79427981D01*
X154940562Y-79450139D01*
X153900377Y-79518614D01*
X152706832Y-79621230D01*
X151485488Y-79745810D01*
X150361908Y-79880177D01*
X149461653Y-80012155D01*
X148910286Y-80129568D01*
X148820933Y-80166202D01*
X148625819Y-80495291D01*
X148759893Y-80974929D01*
X149055876Y-81342701D01*
X149654747Y-81695135D01*
X150646300Y-82078900D01*
X151282937Y-82286323D01*
X153536315Y-82993376D01*
X151374415Y-83196683D01*
X149212515Y-83399991D01*
X149282562Y-84900700D01*
X149354944Y-85793682D01*
X149532132Y-86357904D01*
X149911858Y-86799297D01*
X150346480Y-87142458D01*
X151340352Y-87883508D01*
X150137461Y-88399127D01*
X149202764Y-88914284D01*
X148716141Y-89508472D01*
X148590000Y-90195455D01*
X148664005Y-90409200D01*
X148969218Y-90389769D01*
X149592631Y-90147470D01*
X150542076Y-89753008D01*
X151548823Y-89353410D01*
X151669973Y-89306938D01*
X152744682Y-88897165D01*
X154246535Y-89949216D01*
X154993260Y-90535321D01*
X155714417Y-91255120D01*
X156492932Y-92205048D01*
X157411730Y-93481537D01*
X157897706Y-94195107D01*
X158873968Y-95672149D01*
X159566239Y-96803215D01*
X160007790Y-97672778D01*
X160231894Y-98365313D01*
X160271821Y-98965293D01*
X160160845Y-99557192D01*
X160094416Y-99772314D01*
X159470497Y-100893198D01*
X158521254Y-101668033D01*
X157365101Y-102049166D01*
X156120452Y-101988945D01*
X155323400Y-101692279D01*
X154937903Y-101378533D01*
X154401189Y-100794943D01*
X153776446Y-100029913D01*
X153126860Y-99171844D01*
X152515622Y-98309140D01*
X152005917Y-97530201D01*
X151660934Y-96923431D01*
X151543861Y-96577231D01*
X151641277Y-96540843D01*
X152582982Y-96849944D01*
X153178037Y-96889773D01*
X153543354Y-96657613D01*
X153648031Y-96494206D01*
X153876238Y-96015221D01*
X153937368Y-95817732D01*
X153702577Y-95677103D01*
X153081620Y-95429057D01*
X152199623Y-95122779D01*
X152024617Y-95065847D01*
X151004307Y-94710543D01*
X150371180Y-94397705D01*
X149993288Y-94041558D01*
X149751985Y-93588489D01*
X149510659Y-92973956D01*
X149394066Y-92604451D01*
X149392105Y-92584903D01*
X149569493Y-92454730D01*
X150127633Y-92499525D01*
X151105489Y-92726176D01*
X152542025Y-93141570D01*
X152542931Y-93141846D01*
X153637199Y-93468229D01*
X154335889Y-93642189D01*
X154753111Y-93673055D01*
X155002973Y-93570154D01*
X155188438Y-93358113D01*
X155469891Y-92908107D01*
X155541579Y-92711525D01*
X155305922Y-92561466D01*
X154684108Y-92307057D01*
X153803871Y-91991799D01*
X152792942Y-91659194D01*
X151779057Y-91352742D01*
X150889948Y-91115945D01*
X150782623Y-91090810D01*
X149778184Y-91024023D01*
X148782486Y-91219236D01*
X147994890Y-91622377D01*
X147716834Y-91922325D01*
X147326825Y-92335025D01*
X147055159Y-92442631D01*
X146946361Y-92326997D01*
X146862049Y-91946989D01*
X146799716Y-91252956D01*
X146756855Y-90195242D01*
X146730958Y-88724194D01*
X146719520Y-86790157D01*
X146718421Y-85773070D01*
X146718421Y-79103509D01*
X147988421Y-79015392D01*
X148728468Y-78954312D01*
X148994684Y-78881000D01*
X148847112Y-78752826D01*
X148550139Y-78616565D01*
X147704531Y-78022983D01*
X147171810Y-77203240D01*
X146994901Y-76298933D01*
X147216728Y-75451661D01*
X147484127Y-75100083D01*
X147882638Y-74845498D01*
X148601480Y-74502546D01*
X149504781Y-74123265D01*
X150456674Y-73759692D01*
X151321288Y-73463864D01*
X151962753Y-73287818D01*
X152241028Y-73278221D01*
X152180489Y-73547208D01*
X151796316Y-73993132D01*
X151215889Y-74505652D01*
X150566591Y-74974429D01*
X149975804Y-75289123D01*
X149881387Y-75322172D01*
X148927712Y-75724407D01*
X148481120Y-76200013D01*
X148515562Y-76780956D01*
X148580853Y-76918172D01*
X148976259Y-77353193D01*
X149296813Y-77470000D01*
X149584163Y-77605534D01*
X149562319Y-78086464D01*
X149549680Y-78138421D01*
X149498784Y-78632034D01*
X149772240Y-78797180D01*
X149987678Y-78806842D01*
X150506337Y-78725515D01*
X151347790Y-78513184D01*
X152361222Y-78217319D01*
X153395817Y-77885392D01*
X154300760Y-77564877D01*
X154925233Y-77303244D01*
X155098453Y-77198135D01*
X155164293Y-76832832D01*
X155031328Y-76446280D01*
X154876250Y-76195488D01*
X154673065Y-76074887D01*
X154312991Y-76094407D01*
X153687246Y-76263976D01*
X152687046Y-76593523D01*
X152416404Y-76684944D01*
X151387973Y-77029125D01*
X150569386Y-77296576D01*
X150078985Y-77448950D01*
X149993684Y-77470000D01*
X150054237Y-77258795D01*
X150314913Y-76712975D01*
X150606396Y-76160116D01*
X151106994Y-75348419D01*
X151605991Y-74876005D01*
X152289407Y-74581416D01*
X152494662Y-74521158D01*
X153305952Y-74229415D01*
X153625289Y-73904880D01*
X153493899Y-73474005D01*
X153250857Y-73172115D01*
X153046460Y-72877651D01*
X153051312Y-72556426D01*
X153306165Y-72072330D01*
X153788123Y-71377715D01*
X154754554Y-70277343D01*
X155764238Y-69661809D01*
X156910982Y-69483609D01*
X157444484Y-69526187D01*
X158581726Y-69914250D01*
X159489227Y-70668996D01*
X160087878Y-71669483D01*
X160298565Y-72794769D01*
X160149614Y-73661699D01*
G36*
X148665977Y-72735683D02*
G01*
X145782631Y-74514976D01*
X144512631Y-73204997D01*
X143662397Y-72188654D01*
X143280961Y-71346695D01*
X143355820Y-70620499D01*
X143827784Y-69994099D01*
X144652572Y-69549841D01*
X145367679Y-69448947D01*
X145704559Y-69391679D01*
X145704559Y-70660392D01*
X145159274Y-70745139D01*
X144878550Y-71130338D01*
X144955829Y-71701682D01*
X145384176Y-72258666D01*
X145846801Y-72578841D01*
X146295360Y-72530490D01*
X146593462Y-72385330D01*
X147077417Y-72024662D01*
X147097859Y-71646537D01*
X146643970Y-71163454D01*
X146420960Y-70990404D01*
X145704559Y-70660392D01*
X145704559Y-69391679D01*
X146209990Y-69305757D01*
X146656372Y-68914210D01*
X147136606Y-68508208D01*
X147915768Y-68387145D01*
X147915768Y-69623325D01*
X147893116Y-69630550D01*
X147556818Y-69882769D01*
X147675283Y-70258235D01*
X148045305Y-70643093D01*
X148631192Y-70958397D01*
X149021145Y-70944923D01*
X149287259Y-70782622D01*
X149213153Y-70525464D01*
X148868957Y-70129704D01*
X148352323Y-69728019D01*
X147915768Y-69623325D01*
X147915768Y-68387145D01*
X147964276Y-68379607D01*
X148000737Y-68379474D01*
X148625489Y-68441253D01*
X149175526Y-68686591D01*
X149810073Y-69205489D01*
X150280238Y-69667932D01*
X151549322Y-70956390D01*
X148665977Y-72735683D01*
G37*
X148665977Y-72735683D02*
X145782631Y-74514976D01*
X144512631Y-73204997D01*
X143662397Y-72188654D01*
X143280961Y-71346695D01*
X143355820Y-70620499D01*
X143827784Y-69994099D01*
X144652572Y-69549841D01*
X145367679Y-69448947D01*
X145704559Y-69391679D01*
X145704559Y-70660392D01*
X145159274Y-70745139D01*
X144878550Y-71130338D01*
X144955829Y-71701682D01*
X145384176Y-72258666D01*
X145846801Y-72578841D01*
X146295360Y-72530490D01*
X146593462Y-72385330D01*
X147077417Y-72024662D01*
X147097859Y-71646537D01*
X146643970Y-71163454D01*
X146420960Y-70990404D01*
X145704559Y-70660392D01*
X145704559Y-69391679D01*
X146209990Y-69305757D01*
X146656372Y-68914210D01*
X147136606Y-68508208D01*
X147915768Y-68387145D01*
X147915768Y-69623325D01*
X147893116Y-69630550D01*
X147556818Y-69882769D01*
X147675283Y-70258235D01*
X148045305Y-70643093D01*
X148631192Y-70958397D01*
X149021145Y-70944923D01*
X149287259Y-70782622D01*
X149213153Y-70525464D01*
X148868957Y-70129704D01*
X148352323Y-69728019D01*
X147915768Y-69623325D01*
X147915768Y-68387145D01*
X147964276Y-68379607D01*
X148000737Y-68379474D01*
X148625489Y-68441253D01*
X149175526Y-68686591D01*
X149810073Y-69205489D01*
X150280238Y-69667932D01*
X151549322Y-70956390D01*
X148665977Y-72735683D01*
G36*
X151429780Y-99642278D02*
G01*
X151283892Y-99776975D01*
X150925516Y-100031982D01*
X150497636Y-100115393D01*
X149827033Y-100040179D01*
X149257425Y-99928740D01*
X148419501Y-99780965D01*
X147814447Y-99723080D01*
X147609435Y-99750915D01*
X147655077Y-100037400D01*
X147920028Y-100622956D01*
X148166108Y-101069013D01*
X148561574Y-101774404D01*
X148698881Y-102185572D01*
X148598306Y-102464823D01*
X148369153Y-102694214D01*
X147925979Y-103034920D01*
X147695396Y-103137368D01*
X147427025Y-103006425D01*
X146820088Y-102657044D01*
X145980056Y-102154401D01*
X145012404Y-101563670D01*
X144022603Y-100950025D01*
X143116128Y-100378640D01*
X142398451Y-99914690D01*
X141975046Y-99623350D01*
X141905789Y-99559826D01*
X142065342Y-99349610D01*
X142226631Y-99180316D01*
X142587462Y-98929518D01*
X143023838Y-98916454D01*
X143647517Y-99169191D01*
X144570255Y-99715796D01*
X144707966Y-99803479D01*
X145570085Y-100332916D01*
X146030462Y-100543811D01*
X146121049Y-100430435D01*
X145873796Y-99987062D01*
X145632040Y-99637835D01*
X145259970Y-98972947D01*
X145303893Y-98563639D01*
X145792213Y-98383959D01*
X146753338Y-98407953D01*
X146954868Y-98429181D01*
X148456315Y-98598806D01*
X146754995Y-97513638D01*
X145898737Y-96955754D01*
X145428450Y-96591087D01*
X145275359Y-96331511D01*
X145370694Y-96088901D01*
X145512495Y-95921480D01*
X145744605Y-95700432D01*
X145996092Y-95626289D01*
X146369055Y-95732415D01*
X146965591Y-96052174D01*
X147887797Y-96618932D01*
X148149605Y-96783271D01*
X149188931Y-97432166D01*
X150137866Y-98017232D01*
X150850075Y-98448548D01*
X151061467Y-98572606D01*
X151629038Y-98946257D01*
X151742076Y-99250110D01*
X151429780Y-99642278D01*
G37*
X151429780Y-99642278D02*
X151283892Y-99776975D01*
X150925516Y-100031982D01*
X150497636Y-100115393D01*
X149827033Y-100040179D01*
X149257425Y-99928740D01*
X148419501Y-99780965D01*
X147814447Y-99723080D01*
X147609435Y-99750915D01*
X147655077Y-100037400D01*
X147920028Y-100622956D01*
X148166108Y-101069013D01*
X148561574Y-101774404D01*
X148698881Y-102185572D01*
X148598306Y-102464823D01*
X148369153Y-102694214D01*
X147925979Y-103034920D01*
X147695396Y-103137368D01*
X147427025Y-103006425D01*
X146820088Y-102657044D01*
X145980056Y-102154401D01*
X145012404Y-101563670D01*
X144022603Y-100950025D01*
X143116128Y-100378640D01*
X142398451Y-99914690D01*
X141975046Y-99623350D01*
X141905789Y-99559826D01*
X142065342Y-99349610D01*
X142226631Y-99180316D01*
X142587462Y-98929518D01*
X143023838Y-98916454D01*
X143647517Y-99169191D01*
X144570255Y-99715796D01*
X144707966Y-99803479D01*
X145570085Y-100332916D01*
X146030462Y-100543811D01*
X146121049Y-100430435D01*
X145873796Y-99987062D01*
X145632040Y-99637835D01*
X145259970Y-98972947D01*
X145303893Y-98563639D01*
X145792213Y-98383959D01*
X146753338Y-98407953D01*
X146954868Y-98429181D01*
X148456315Y-98598806D01*
X146754995Y-97513638D01*
X145898737Y-96955754D01*
X145428450Y-96591087D01*
X145275359Y-96331511D01*
X145370694Y-96088901D01*
X145512495Y-95921480D01*
X145744605Y-95700432D01*
X145996092Y-95626289D01*
X146369055Y-95732415D01*
X146965591Y-96052174D01*
X147887797Y-96618932D01*
X148149605Y-96783271D01*
X149188931Y-97432166D01*
X150137866Y-98017232D01*
X150850075Y-98448548D01*
X151061467Y-98572606D01*
X151629038Y-98946257D01*
X151742076Y-99250110D01*
X151429780Y-99642278D01*
G36*
X143046439Y-93561838D02*
G01*
X142522560Y-94035435D01*
X141768041Y-94675308D01*
X140879929Y-95402154D01*
X139955272Y-96136673D01*
X139091116Y-96799565D01*
X138384508Y-97311529D01*
X138324826Y-97352337D01*
X137110205Y-97932389D01*
X135926342Y-97984680D01*
X134729775Y-97511007D01*
X134714534Y-97501753D01*
X133901021Y-96967091D01*
X132888830Y-96245204D01*
X131775706Y-95412656D01*
X130659395Y-94546012D01*
X129637642Y-93721838D01*
X128808194Y-93016696D01*
X128268796Y-92507153D01*
X128139732Y-92351685D01*
X127694131Y-91304411D01*
X127599533Y-90188516D01*
X127758152Y-89501716D01*
X128437498Y-88417996D01*
X129386733Y-87641648D01*
X130481396Y-87239661D01*
X131597024Y-87279027D01*
X131782804Y-87335471D01*
X132382228Y-87628857D01*
X133241513Y-88152561D01*
X134199813Y-88806832D01*
X134450796Y-88990062D01*
X136295641Y-90357703D01*
X137645795Y-89328062D01*
X138362123Y-88804367D01*
X138898952Y-88453911D01*
X139126048Y-88355234D01*
X139352440Y-88577810D01*
X139825718Y-89113169D01*
X140463469Y-89861640D01*
X141183276Y-90723551D01*
X141902725Y-91599229D01*
X142539402Y-92389003D01*
X143010893Y-92993201D01*
X143234782Y-93312151D01*
X143242631Y-93333816D01*
X143046439Y-93561838D01*
G37*
X143046439Y-93561838D02*
X142522560Y-94035435D01*
X141768041Y-94675308D01*
X140879929Y-95402154D01*
X139955272Y-96136673D01*
X139091116Y-96799565D01*
X138384508Y-97311529D01*
X138324826Y-97352337D01*
X137110205Y-97932389D01*
X135926342Y-97984680D01*
X134729775Y-97511007D01*
X134714534Y-97501753D01*
X133901021Y-96967091D01*
X132888830Y-96245204D01*
X131775706Y-95412656D01*
X130659395Y-94546012D01*
X129637642Y-93721838D01*
X128808194Y-93016696D01*
X128268796Y-92507153D01*
X128139732Y-92351685D01*
X127694131Y-91304411D01*
X127599533Y-90188516D01*
X127758152Y-89501716D01*
X128437498Y-88417996D01*
X129386733Y-87641648D01*
X130481396Y-87239661D01*
X131597024Y-87279027D01*
X131782804Y-87335471D01*
X132382228Y-87628857D01*
X133241513Y-88152561D01*
X134199813Y-88806832D01*
X134450796Y-88990062D01*
X136295641Y-90357703D01*
X137645795Y-89328062D01*
X138362123Y-88804367D01*
X138898952Y-88453911D01*
X139126048Y-88355234D01*
X139352440Y-88577810D01*
X139825718Y-89113169D01*
X140463469Y-89861640D01*
X141183276Y-90723551D01*
X141902725Y-91599229D01*
X142539402Y-92389003D01*
X143010893Y-92993201D01*
X143234782Y-93312151D01*
X143242631Y-93333816D01*
X143046439Y-93561838D01*
G36*
X143079978Y-78434189D02*
G01*
X142648379Y-79000868D01*
X142032377Y-79767064D01*
X141316513Y-80631919D01*
X140585331Y-81494572D01*
X139923373Y-82254166D01*
X139415180Y-82809840D01*
X139145296Y-83060737D01*
X139138771Y-83063800D01*
X138822713Y-82961506D01*
X138229414Y-82604522D01*
X137608363Y-82160234D01*
X136304972Y-81166255D01*
X134286437Y-82640375D01*
X133003585Y-83525591D01*
X132003595Y-84070702D01*
X131183321Y-84305662D01*
X130439617Y-84260422D01*
X129689825Y-83975172D01*
X128555213Y-83177106D01*
X127841724Y-82165959D01*
X127583792Y-81026940D01*
X127815855Y-79845258D01*
X127925300Y-79608947D01*
X128331253Y-79084831D01*
X129084087Y-78344587D01*
X130084305Y-77466515D01*
X131232409Y-76528920D01*
X132428902Y-75610101D01*
X133574286Y-74788362D01*
X134569064Y-74142004D01*
X135313738Y-73749331D01*
X135423031Y-73708420D01*
X136295149Y-73554627D01*
X137111928Y-73597280D01*
X137545817Y-73800709D01*
X138265918Y-74249345D01*
X139175496Y-74871072D01*
X140177815Y-75593769D01*
X141176141Y-76345320D01*
X142073738Y-77053604D01*
X142773872Y-77646503D01*
X143179807Y-78051900D01*
X143242631Y-78167887D01*
X143079978Y-78434189D01*
G37*
X143079978Y-78434189D02*
X142648379Y-79000868D01*
X142032377Y-79767064D01*
X141316513Y-80631919D01*
X140585331Y-81494572D01*
X139923373Y-82254166D01*
X139415180Y-82809840D01*
X139145296Y-83060737D01*
X139138771Y-83063800D01*
X138822713Y-82961506D01*
X138229414Y-82604522D01*
X137608363Y-82160234D01*
X136304972Y-81166255D01*
X134286437Y-82640375D01*
X133003585Y-83525591D01*
X132003595Y-84070702D01*
X131183321Y-84305662D01*
X130439617Y-84260422D01*
X129689825Y-83975172D01*
X128555213Y-83177106D01*
X127841724Y-82165959D01*
X127583792Y-81026940D01*
X127815855Y-79845258D01*
X127925300Y-79608947D01*
X128331253Y-79084831D01*
X129084087Y-78344587D01*
X130084305Y-77466515D01*
X131232409Y-76528920D01*
X132428902Y-75610101D01*
X133574286Y-74788362D01*
X134569064Y-74142004D01*
X135313738Y-73749331D01*
X135423031Y-73708420D01*
X136295149Y-73554627D01*
X137111928Y-73597280D01*
X137545817Y-73800709D01*
X138265918Y-74249345D01*
X139175496Y-74871072D01*
X140177815Y-75593769D01*
X141176141Y-76345320D01*
X142073738Y-77053604D01*
X142773872Y-77646503D01*
X143179807Y-78051900D01*
X143242631Y-78167887D01*
X143079978Y-78434189D01*
%TD*%
M02*
