%TF.GenerationSoftware,KiCad,Pcbnew,(5.1.6-0-10_14)*%
%TF.CreationDate,2020-06-28T20:47:41+01:00*%
%TF.ProjectId,mux-control,6d75782d-636f-46e7-9472-6f6c2e6b6963,rev?*%
%TF.SameCoordinates,Original*%
%TF.FileFunction,Copper,L1,Top*%
%TF.FilePolarity,Positive*%
%FSLAX46Y46*%
G04 Gerber Fmt 4.6, Leading zero omitted, Abs format (unit mm)*
G04 Created by KiCad (PCBNEW (5.1.6-0-10_14)) date 2020-06-28 20:47:41*
%MOMM*%
%LPD*%
G01*
G04 APERTURE LIST*
%TA.AperFunction,WasherPad*%
%ADD10C,2.100000*%
%TD*%
%TA.AperFunction,ComponentPad*%
%ADD11C,2.000000*%
%TD*%
%TA.AperFunction,ComponentPad*%
%ADD12O,1.350000X1.350000*%
%TD*%
%TA.AperFunction,ComponentPad*%
%ADD13C,1.800000*%
%TD*%
%TA.AperFunction,ComponentPad*%
%ADD14R,1.800000X1.800000*%
%TD*%
%TA.AperFunction,ComponentPad*%
%ADD15O,1.400000X1.400000*%
%TD*%
%TA.AperFunction,ComponentPad*%
%ADD16C,1.400000*%
%TD*%
%TA.AperFunction,ComponentPad*%
%ADD17C,1.676400*%
%TD*%
%TA.AperFunction,ComponentPad*%
%ADD18R,1.676400X1.676400*%
%TD*%
%TA.AperFunction,Conductor*%
%ADD19C,0.250000*%
%TD*%
%TA.AperFunction,Conductor*%
%ADD20C,0.254000*%
%TD*%
G04 APERTURE END LIST*
D10*
%TO.P,MO3,*%
%TO.N,*%
X170180000Y-72390000D03*
%TD*%
%TO.P,MO4,*%
%TO.N,*%
X170180000Y-100330000D03*
%TD*%
%TO.P,MO2,*%
%TO.N,*%
X121920000Y-111760000D03*
%TD*%
D11*
%TO.P,SW1,1*%
%TO.N,Net-(SW1-Pad1)*%
X132230000Y-66040000D03*
%TO.P,SW1,2*%
%TO.N,Net-(J1-Pad1)*%
X132230000Y-70540000D03*
%TO.P,SW1,1*%
%TO.N,Net-(SW1-Pad1)*%
X125730000Y-66040000D03*
%TO.P,SW1,2*%
%TO.N,Net-(J1-Pad1)*%
X125730000Y-70540000D03*
%TD*%
%TO.P,SW4,1*%
%TO.N,Net-(SW4-Pad1)*%
X132230000Y-102870000D03*
%TO.P,SW4,2*%
%TO.N,Net-(J1-Pad1)*%
X132230000Y-107370000D03*
%TO.P,SW4,1*%
%TO.N,Net-(SW4-Pad1)*%
X125730000Y-102870000D03*
%TO.P,SW4,2*%
%TO.N,Net-(J1-Pad1)*%
X125730000Y-107370000D03*
%TD*%
D12*
%TO.P,J1,8*%
%TO.N,Net-(J1-Pad8)*%
X153700000Y-66040000D03*
%TO.P,J1,7*%
%TO.N,Net-(J1-Pad7)*%
X151700000Y-66040000D03*
%TO.P,J1,6*%
%TO.N,Net-(J1-Pad6)*%
X149700000Y-66040000D03*
%TO.P,J1,5*%
%TO.N,Net-(J1-Pad5)*%
X147700000Y-66040000D03*
%TO.P,J1,4*%
%TO.N,Net-(J1-Pad4)*%
X145700000Y-66040000D03*
%TO.P,J1,3*%
%TO.N,Net-(J1-Pad3)*%
X143700000Y-66040000D03*
%TO.P,J1,~E*%
%TO.N,Net-(J1-Pad2)*%
X141700000Y-66040000D03*
%TO.P,J1,GND*%
%TO.N,Net-(J1-Pad1)*%
%TA.AperFunction,ComponentPad*%
G36*
G01*
X140037500Y-66715000D02*
X139362500Y-66715000D01*
G75*
G02*
X139025000Y-66377500I0J337500D01*
G01*
X139025000Y-65702500D01*
G75*
G02*
X139362500Y-65365000I337500J0D01*
G01*
X140037500Y-65365000D01*
G75*
G02*
X140375000Y-65702500I0J-337500D01*
G01*
X140375000Y-66377500D01*
G75*
G02*
X140037500Y-66715000I-337500J0D01*
G01*
G37*
%TD.AperFunction*%
%TD*%
D13*
%TO.P,D1,2*%
%TO.N,Net-(D1-Pad2)*%
X151130000Y-76200000D03*
D14*
%TO.P,D1,1*%
%TO.N,Net-(D1-Pad1)*%
X153670000Y-76200000D03*
%TD*%
D13*
%TO.P,D2,2*%
%TO.N,Net-(D2-Pad2)*%
X151130000Y-82550000D03*
D14*
%TO.P,D2,1*%
%TO.N,Net-(D2-Pad1)*%
X153670000Y-82550000D03*
%TD*%
D13*
%TO.P,D3,2*%
%TO.N,Net-(D3-Pad2)*%
X151130000Y-88900000D03*
D14*
%TO.P,D3,1*%
%TO.N,Net-(D3-Pad1)*%
X153670000Y-88900000D03*
%TD*%
D13*
%TO.P,D4,2*%
%TO.N,Net-(D4-Pad2)*%
X151130000Y-95250000D03*
D14*
%TO.P,D4,1*%
%TO.N,Net-(D4-Pad1)*%
X153670000Y-95250000D03*
%TD*%
D15*
%TO.P,R1,2*%
%TO.N,Net-(J1-Pad1)*%
X165100000Y-76200000D03*
D16*
%TO.P,R1,1*%
%TO.N,Net-(D1-Pad1)*%
X160020000Y-76200000D03*
%TD*%
D15*
%TO.P,R2,2*%
%TO.N,Net-(J1-Pad1)*%
X165100000Y-82550000D03*
D16*
%TO.P,R2,1*%
%TO.N,Net-(D2-Pad1)*%
X160020000Y-82550000D03*
%TD*%
D15*
%TO.P,R3,2*%
%TO.N,Net-(J1-Pad1)*%
X165100000Y-88900000D03*
D16*
%TO.P,R3,1*%
%TO.N,Net-(D3-Pad1)*%
X160020000Y-88900000D03*
%TD*%
D15*
%TO.P,R4,2*%
%TO.N,Net-(J1-Pad1)*%
X165100000Y-95250000D03*
D16*
%TO.P,R4,1*%
%TO.N,Net-(D4-Pad1)*%
X160020000Y-95250000D03*
%TD*%
D11*
%TO.P,SW2,1*%
%TO.N,Net-(SW2-Pad1)*%
X132080000Y-77470000D03*
%TO.P,SW2,2*%
%TO.N,Net-(J1-Pad1)*%
X132080000Y-81970000D03*
%TO.P,SW2,1*%
%TO.N,Net-(SW2-Pad1)*%
X125580000Y-77470000D03*
%TO.P,SW2,2*%
%TO.N,Net-(J1-Pad1)*%
X125580000Y-81970000D03*
%TD*%
%TO.P,SW3,1*%
%TO.N,Net-(SW3-Pad1)*%
X132230000Y-90170000D03*
%TO.P,SW3,2*%
%TO.N,Net-(J1-Pad1)*%
X132230000Y-94670000D03*
%TO.P,SW3,1*%
%TO.N,Net-(SW3-Pad1)*%
X125730000Y-90170000D03*
%TO.P,SW3,2*%
%TO.N,Net-(J1-Pad1)*%
X125730000Y-94670000D03*
%TD*%
D17*
%TO.P,U1,16*%
%TO.N,Net-(J1-Pad8)*%
X146050000Y-77470000D03*
%TO.P,U1,15*%
%TO.N,Net-(D2-Pad2)*%
X146050000Y-80010000D03*
%TO.P,U1,14*%
%TO.N,Net-(D3-Pad2)*%
X146050000Y-82550000D03*
%TO.P,U1,13*%
%TO.N,Net-(D4-Pad2)*%
X146050000Y-85090000D03*
%TO.P,U1,12*%
%TO.N,Net-(D1-Pad2)*%
X146050000Y-87630000D03*
%TO.P,U1,11*%
%TO.N,Net-(J1-Pad6)*%
X146050000Y-90170000D03*
%TO.P,U1,10*%
%TO.N,Net-(J1-Pad4)*%
X146050000Y-92710000D03*
%TO.P,U1,9*%
%TO.N,Net-(J1-Pad5)*%
X146050000Y-95250000D03*
D18*
%TO.P,U1,8*%
%TO.N,Net-(J1-Pad1)*%
X138430000Y-95250000D03*
D17*
%TO.P,U1,7*%
%TO.N,Net-(J1-Pad7)*%
X138430000Y-92710000D03*
%TO.P,U1,6*%
%TO.N,Net-(J1-Pad2)*%
X138430000Y-90170000D03*
%TO.P,U1,5*%
%TO.N,Net-(SW3-Pad1)*%
X138430000Y-87630000D03*
%TO.P,U1,4*%
%TO.N,Net-(SW1-Pad1)*%
X138430000Y-85090000D03*
%TO.P,U1,3*%
%TO.N,Net-(J1-Pad3)*%
X138430000Y-82550000D03*
%TO.P,U1,2*%
%TO.N,Net-(SW2-Pad1)*%
X138430000Y-80010000D03*
%TO.P,U1,1*%
%TO.N,Net-(SW4-Pad1)*%
X138430000Y-77470000D03*
%TD*%
D10*
%TO.P,MO1,*%
%TO.N,*%
X121920000Y-62230000D03*
%TD*%
D19*
%TO.N,Net-(D1-Pad2)*%
X149700000Y-77630000D02*
X151130000Y-76200000D01*
X149700000Y-83980000D02*
X149700000Y-77630000D01*
X146050000Y-87630000D02*
X149700000Y-83980000D01*
%TO.N,Net-(J1-Pad3)*%
X143700000Y-66040000D02*
X143700000Y-67040300D01*
X143529200Y-77450800D02*
X138430000Y-82550000D01*
X143529200Y-67211100D02*
X143529200Y-77450800D01*
X143700000Y-67040300D02*
X143529200Y-67211100D01*
%TO.N,Net-(J1-Pad4)*%
X145700000Y-66040000D02*
X145700000Y-67040300D01*
X143979500Y-90639500D02*
X146050000Y-92710000D01*
X143979500Y-68760800D02*
X143979500Y-90639500D01*
X145700000Y-67040300D02*
X143979500Y-68760800D01*
%TO.N,Net-(J1-Pad5)*%
X144429800Y-70310500D02*
X147700000Y-67040300D01*
X144429800Y-90247200D02*
X144429800Y-70310500D01*
X145729100Y-91546500D02*
X144429800Y-90247200D01*
X146571800Y-91546500D02*
X145729100Y-91546500D01*
X147252100Y-92226800D02*
X146571800Y-91546500D01*
X147252100Y-94047900D02*
X147252100Y-92226800D01*
X146050000Y-95250000D02*
X147252100Y-94047900D01*
X147700000Y-66040000D02*
X147700000Y-67040300D01*
%TO.N,Net-(J1-Pad6)*%
X144880200Y-71860100D02*
X149700000Y-67040300D01*
X144880200Y-89000200D02*
X144880200Y-71860100D01*
X146050000Y-90170000D02*
X144880200Y-89000200D01*
X149700000Y-66040000D02*
X149700000Y-67040300D01*
%TO.N,Net-(SW4-Pad1)*%
X138139100Y-78633500D02*
X138430000Y-78633500D01*
X136649700Y-80122900D02*
X138139100Y-78633500D01*
X136649700Y-98450300D02*
X136649700Y-80122900D01*
X132230000Y-102870000D02*
X136649700Y-98450300D01*
X138430000Y-77470000D02*
X138430000Y-78633500D01*
%TD*%
D20*
%TO.N,Net-(J1-Pad1)*%
G36*
X151211838Y-63761444D02*
G01*
X152273000Y-64822606D01*
X152273000Y-64859410D01*
X152082113Y-64780342D01*
X151829024Y-64730000D01*
X151570976Y-64730000D01*
X151317887Y-64780342D01*
X151079482Y-64879093D01*
X150864923Y-65022456D01*
X150700000Y-65187379D01*
X150535077Y-65022456D01*
X150320518Y-64879093D01*
X150082113Y-64780342D01*
X149829024Y-64730000D01*
X149570976Y-64730000D01*
X149317887Y-64780342D01*
X149079482Y-64879093D01*
X148864923Y-65022456D01*
X148700000Y-65187379D01*
X148535077Y-65022456D01*
X148320518Y-64879093D01*
X148082113Y-64780342D01*
X147829024Y-64730000D01*
X147570976Y-64730000D01*
X147317887Y-64780342D01*
X147079482Y-64879093D01*
X146864923Y-65022456D01*
X146700000Y-65187379D01*
X146535077Y-65022456D01*
X146320518Y-64879093D01*
X146082113Y-64780342D01*
X145829024Y-64730000D01*
X145570976Y-64730000D01*
X145317887Y-64780342D01*
X145079482Y-64879093D01*
X144864923Y-65022456D01*
X144700000Y-65187379D01*
X144535077Y-65022456D01*
X144320518Y-64879093D01*
X144082113Y-64780342D01*
X143829024Y-64730000D01*
X143570976Y-64730000D01*
X143317887Y-64780342D01*
X143079482Y-64879093D01*
X142864923Y-65022456D01*
X142700000Y-65187379D01*
X142535077Y-65022456D01*
X142320518Y-64879093D01*
X142082113Y-64780342D01*
X141829024Y-64730000D01*
X141570976Y-64730000D01*
X141317887Y-64780342D01*
X141079482Y-64879093D01*
X140897487Y-65000697D01*
X140826185Y-64913815D01*
X140729494Y-64834463D01*
X140619180Y-64775498D01*
X140499482Y-64739188D01*
X140375000Y-64726928D01*
X139985750Y-64730000D01*
X139827000Y-64888750D01*
X139827000Y-65913000D01*
X139847000Y-65913000D01*
X139847000Y-66167000D01*
X139827000Y-66167000D01*
X139827000Y-67191250D01*
X139985750Y-67350000D01*
X140375000Y-67353072D01*
X140499482Y-67340812D01*
X140619180Y-67304502D01*
X140729494Y-67245537D01*
X140826185Y-67166185D01*
X140897487Y-67079303D01*
X141079482Y-67200907D01*
X141317887Y-67299658D01*
X141570976Y-67350000D01*
X141829024Y-67350000D01*
X142082113Y-67299658D01*
X142320518Y-67200907D01*
X142535077Y-67057544D01*
X142700000Y-66892621D01*
X142800980Y-66993601D01*
X142780197Y-67062115D01*
X142769200Y-67173768D01*
X142769200Y-67173778D01*
X142765524Y-67211100D01*
X142769200Y-67248422D01*
X142769201Y-77135997D01*
X139903200Y-80001999D01*
X139903200Y-79864902D01*
X139846586Y-79580283D01*
X139735533Y-79312178D01*
X139574309Y-79070890D01*
X139369110Y-78865691D01*
X139183053Y-78741371D01*
X139183342Y-78738436D01*
X139369110Y-78614309D01*
X139574309Y-78409110D01*
X139735533Y-78167822D01*
X139846586Y-77899717D01*
X139903200Y-77615098D01*
X139903200Y-77324902D01*
X139846586Y-77040283D01*
X139735533Y-76772178D01*
X139574309Y-76530890D01*
X139369110Y-76325691D01*
X139127822Y-76164467D01*
X138859717Y-76053414D01*
X138575098Y-75996800D01*
X138284902Y-75996800D01*
X138000283Y-76053414D01*
X137732178Y-76164467D01*
X137490890Y-76325691D01*
X137285691Y-76530890D01*
X137124467Y-76772178D01*
X137013414Y-77040283D01*
X136956800Y-77324902D01*
X136956800Y-77615098D01*
X137013414Y-77899717D01*
X137124467Y-78167822D01*
X137285691Y-78409110D01*
X137287190Y-78410609D01*
X136138698Y-79559101D01*
X136109700Y-79582899D01*
X136085902Y-79611897D01*
X136085901Y-79611898D01*
X136014726Y-79698624D01*
X135944154Y-79830654D01*
X135900698Y-79973915D01*
X135886024Y-80122900D01*
X135889701Y-80160233D01*
X135889700Y-98135498D01*
X132721376Y-101303823D01*
X132706912Y-101297832D01*
X132391033Y-101235000D01*
X132068967Y-101235000D01*
X131753088Y-101297832D01*
X131455537Y-101421082D01*
X131187748Y-101600013D01*
X130960013Y-101827748D01*
X130781082Y-102095537D01*
X130657832Y-102393088D01*
X130595000Y-102708967D01*
X130595000Y-103031033D01*
X130657832Y-103346912D01*
X130781082Y-103644463D01*
X130960013Y-103912252D01*
X131187748Y-104139987D01*
X131455537Y-104318918D01*
X131753088Y-104442168D01*
X132068967Y-104505000D01*
X132391033Y-104505000D01*
X132706912Y-104442168D01*
X133004463Y-104318918D01*
X133272252Y-104139987D01*
X133499987Y-103912252D01*
X133678918Y-103644463D01*
X133802168Y-103346912D01*
X133865000Y-103031033D01*
X133865000Y-102708967D01*
X133802168Y-102393088D01*
X133796177Y-102378624D01*
X137160704Y-99014098D01*
X137189701Y-98990301D01*
X137284674Y-98874576D01*
X137355246Y-98742547D01*
X137398703Y-98599286D01*
X137409700Y-98487633D01*
X137409700Y-98487625D01*
X137413376Y-98450300D01*
X137409700Y-98412975D01*
X137409700Y-96696534D01*
X137467318Y-96714012D01*
X137591800Y-96726272D01*
X138144250Y-96723200D01*
X138303000Y-96564450D01*
X138303000Y-95377000D01*
X138557000Y-95377000D01*
X138557000Y-96564450D01*
X138715750Y-96723200D01*
X139268200Y-96726272D01*
X139392682Y-96714012D01*
X139512380Y-96677702D01*
X139622694Y-96618737D01*
X139719385Y-96539385D01*
X139798737Y-96442694D01*
X139857702Y-96332380D01*
X139894012Y-96212682D01*
X139906272Y-96088200D01*
X139903200Y-95535750D01*
X139744450Y-95377000D01*
X138557000Y-95377000D01*
X138303000Y-95377000D01*
X138283000Y-95377000D01*
X138283000Y-95123000D01*
X138303000Y-95123000D01*
X138303000Y-95103000D01*
X138557000Y-95103000D01*
X138557000Y-95123000D01*
X139744450Y-95123000D01*
X139903200Y-94964250D01*
X139906272Y-94411800D01*
X139894012Y-94287318D01*
X139857702Y-94167620D01*
X139798737Y-94057306D01*
X139719385Y-93960615D01*
X139622694Y-93881263D01*
X139512380Y-93822298D01*
X139427016Y-93796403D01*
X139574309Y-93649110D01*
X139735533Y-93407822D01*
X139846586Y-93139717D01*
X139903200Y-92855098D01*
X139903200Y-92564902D01*
X139846586Y-92280283D01*
X139735533Y-92012178D01*
X139574309Y-91770890D01*
X139369110Y-91565691D01*
X139181001Y-91440000D01*
X139369110Y-91314309D01*
X139574309Y-91109110D01*
X139735533Y-90867822D01*
X139846586Y-90599717D01*
X139903200Y-90315098D01*
X139903200Y-90024902D01*
X139846586Y-89740283D01*
X139735533Y-89472178D01*
X139574309Y-89230890D01*
X139369110Y-89025691D01*
X139181001Y-88900000D01*
X139369110Y-88774309D01*
X139574309Y-88569110D01*
X139735533Y-88327822D01*
X139846586Y-88059717D01*
X139903200Y-87775098D01*
X139903200Y-87484902D01*
X139846586Y-87200283D01*
X139735533Y-86932178D01*
X139574309Y-86690890D01*
X139369110Y-86485691D01*
X139181001Y-86360000D01*
X139369110Y-86234309D01*
X139574309Y-86029110D01*
X139735533Y-85787822D01*
X139846586Y-85519717D01*
X139903200Y-85235098D01*
X139903200Y-84944902D01*
X139846586Y-84660283D01*
X139735533Y-84392178D01*
X139574309Y-84150890D01*
X139369110Y-83945691D01*
X139181001Y-83820000D01*
X139369110Y-83694309D01*
X139574309Y-83489110D01*
X139735533Y-83247822D01*
X139846586Y-82979717D01*
X139903200Y-82695098D01*
X139903200Y-82404902D01*
X139861175Y-82193626D01*
X143219500Y-78835301D01*
X143219501Y-90602167D01*
X143215824Y-90639500D01*
X143219501Y-90676833D01*
X143230498Y-90788486D01*
X143243680Y-90831942D01*
X143273954Y-90931746D01*
X143344526Y-91063776D01*
X143392494Y-91122224D01*
X143439500Y-91179501D01*
X143468498Y-91203299D01*
X144618825Y-92353627D01*
X144576800Y-92564902D01*
X144576800Y-92855098D01*
X144633414Y-93139717D01*
X144744467Y-93407822D01*
X144905691Y-93649110D01*
X145110890Y-93854309D01*
X145298999Y-93980000D01*
X145110890Y-94105691D01*
X144905691Y-94310890D01*
X144744467Y-94552178D01*
X144633414Y-94820283D01*
X144576800Y-95104902D01*
X144576800Y-95395098D01*
X144633414Y-95679717D01*
X144744467Y-95947822D01*
X144905691Y-96189110D01*
X145110890Y-96394309D01*
X145352178Y-96555533D01*
X145620283Y-96666586D01*
X145904902Y-96723200D01*
X146195098Y-96723200D01*
X146479717Y-96666586D01*
X146747822Y-96555533D01*
X146989110Y-96394309D01*
X147194309Y-96189110D01*
X147355533Y-95947822D01*
X147466586Y-95679717D01*
X147523200Y-95395098D01*
X147523200Y-95104902D01*
X147521990Y-95098816D01*
X149595000Y-95098816D01*
X149595000Y-95401184D01*
X149653989Y-95697743D01*
X149769701Y-95977095D01*
X149937688Y-96228505D01*
X150151495Y-96442312D01*
X150402905Y-96610299D01*
X150682257Y-96726011D01*
X150978816Y-96785000D01*
X151281184Y-96785000D01*
X151577743Y-96726011D01*
X151857095Y-96610299D01*
X152108505Y-96442312D01*
X152174944Y-96375873D01*
X152180498Y-96394180D01*
X152239463Y-96504494D01*
X152318815Y-96601185D01*
X152415506Y-96680537D01*
X152525820Y-96739502D01*
X152645518Y-96775812D01*
X152770000Y-96788072D01*
X154570000Y-96788072D01*
X154694482Y-96775812D01*
X154814180Y-96739502D01*
X154924494Y-96680537D01*
X155021185Y-96601185D01*
X155100537Y-96504494D01*
X155159502Y-96394180D01*
X155195812Y-96274482D01*
X155208072Y-96150000D01*
X155208072Y-95118514D01*
X158685000Y-95118514D01*
X158685000Y-95381486D01*
X158736304Y-95639405D01*
X158836939Y-95882359D01*
X158983038Y-96101013D01*
X159168987Y-96286962D01*
X159387641Y-96433061D01*
X159630595Y-96533696D01*
X159888514Y-96585000D01*
X160151486Y-96585000D01*
X160409405Y-96533696D01*
X160652359Y-96433061D01*
X160871013Y-96286962D01*
X161056962Y-96101013D01*
X161203061Y-95882359D01*
X161303696Y-95639405D01*
X161314850Y-95583329D01*
X163807284Y-95583329D01*
X163839953Y-95691044D01*
X163950208Y-95928392D01*
X164104649Y-96139670D01*
X164297340Y-96316759D01*
X164520877Y-96452853D01*
X164766670Y-96542722D01*
X164973000Y-96420201D01*
X164973000Y-95377000D01*
X165227000Y-95377000D01*
X165227000Y-96420201D01*
X165433330Y-96542722D01*
X165679123Y-96452853D01*
X165902660Y-96316759D01*
X166095351Y-96139670D01*
X166249792Y-95928392D01*
X166360047Y-95691044D01*
X166392716Y-95583329D01*
X166269374Y-95377000D01*
X165227000Y-95377000D01*
X164973000Y-95377000D01*
X163930626Y-95377000D01*
X163807284Y-95583329D01*
X161314850Y-95583329D01*
X161355000Y-95381486D01*
X161355000Y-95118514D01*
X161314851Y-94916671D01*
X163807284Y-94916671D01*
X163930626Y-95123000D01*
X164973000Y-95123000D01*
X164973000Y-94079799D01*
X165227000Y-94079799D01*
X165227000Y-95123000D01*
X166269374Y-95123000D01*
X166392716Y-94916671D01*
X166360047Y-94808956D01*
X166249792Y-94571608D01*
X166095351Y-94360330D01*
X165902660Y-94183241D01*
X165679123Y-94047147D01*
X165433330Y-93957278D01*
X165227000Y-94079799D01*
X164973000Y-94079799D01*
X164766670Y-93957278D01*
X164520877Y-94047147D01*
X164297340Y-94183241D01*
X164104649Y-94360330D01*
X163950208Y-94571608D01*
X163839953Y-94808956D01*
X163807284Y-94916671D01*
X161314851Y-94916671D01*
X161303696Y-94860595D01*
X161203061Y-94617641D01*
X161056962Y-94398987D01*
X160871013Y-94213038D01*
X160652359Y-94066939D01*
X160409405Y-93966304D01*
X160151486Y-93915000D01*
X159888514Y-93915000D01*
X159630595Y-93966304D01*
X159387641Y-94066939D01*
X159168987Y-94213038D01*
X158983038Y-94398987D01*
X158836939Y-94617641D01*
X158736304Y-94860595D01*
X158685000Y-95118514D01*
X155208072Y-95118514D01*
X155208072Y-94350000D01*
X155195812Y-94225518D01*
X155159502Y-94105820D01*
X155100537Y-93995506D01*
X155021185Y-93898815D01*
X154924494Y-93819463D01*
X154814180Y-93760498D01*
X154694482Y-93724188D01*
X154570000Y-93711928D01*
X152770000Y-93711928D01*
X152645518Y-93724188D01*
X152525820Y-93760498D01*
X152415506Y-93819463D01*
X152318815Y-93898815D01*
X152239463Y-93995506D01*
X152180498Y-94105820D01*
X152174944Y-94124127D01*
X152108505Y-94057688D01*
X151857095Y-93889701D01*
X151577743Y-93773989D01*
X151281184Y-93715000D01*
X150978816Y-93715000D01*
X150682257Y-93773989D01*
X150402905Y-93889701D01*
X150151495Y-94057688D01*
X149937688Y-94271495D01*
X149769701Y-94522905D01*
X149653989Y-94802257D01*
X149595000Y-95098816D01*
X147521990Y-95098816D01*
X147481175Y-94893627D01*
X147763104Y-94611698D01*
X147792101Y-94587901D01*
X147845442Y-94522905D01*
X147887074Y-94472177D01*
X147957646Y-94340147D01*
X147978471Y-94271495D01*
X148001103Y-94196886D01*
X148012100Y-94085233D01*
X148012100Y-94085224D01*
X148015776Y-94047901D01*
X148012100Y-94010578D01*
X148012100Y-92264122D01*
X148015776Y-92226799D01*
X148012100Y-92189476D01*
X148012100Y-92189467D01*
X148001103Y-92077814D01*
X147957646Y-91934553D01*
X147887074Y-91802524D01*
X147861113Y-91770890D01*
X147815899Y-91715796D01*
X147815895Y-91715792D01*
X147792101Y-91686799D01*
X147763108Y-91663005D01*
X147200278Y-91100177D01*
X147355533Y-90867822D01*
X147466586Y-90599717D01*
X147523200Y-90315098D01*
X147523200Y-90024902D01*
X147466586Y-89740283D01*
X147355533Y-89472178D01*
X147194309Y-89230890D01*
X146989110Y-89025691D01*
X146801001Y-88900000D01*
X146989110Y-88774309D01*
X147014603Y-88748816D01*
X149595000Y-88748816D01*
X149595000Y-89051184D01*
X149653989Y-89347743D01*
X149769701Y-89627095D01*
X149937688Y-89878505D01*
X150151495Y-90092312D01*
X150402905Y-90260299D01*
X150682257Y-90376011D01*
X150978816Y-90435000D01*
X151281184Y-90435000D01*
X151577743Y-90376011D01*
X151857095Y-90260299D01*
X152108505Y-90092312D01*
X152174944Y-90025873D01*
X152180498Y-90044180D01*
X152239463Y-90154494D01*
X152318815Y-90251185D01*
X152415506Y-90330537D01*
X152525820Y-90389502D01*
X152645518Y-90425812D01*
X152770000Y-90438072D01*
X154570000Y-90438072D01*
X154694482Y-90425812D01*
X154814180Y-90389502D01*
X154924494Y-90330537D01*
X155021185Y-90251185D01*
X155100537Y-90154494D01*
X155159502Y-90044180D01*
X155195812Y-89924482D01*
X155208072Y-89800000D01*
X155208072Y-88768514D01*
X158685000Y-88768514D01*
X158685000Y-89031486D01*
X158736304Y-89289405D01*
X158836939Y-89532359D01*
X158983038Y-89751013D01*
X159168987Y-89936962D01*
X159387641Y-90083061D01*
X159630595Y-90183696D01*
X159888514Y-90235000D01*
X160151486Y-90235000D01*
X160409405Y-90183696D01*
X160652359Y-90083061D01*
X160871013Y-89936962D01*
X161056962Y-89751013D01*
X161203061Y-89532359D01*
X161303696Y-89289405D01*
X161314850Y-89233329D01*
X163807284Y-89233329D01*
X163839953Y-89341044D01*
X163950208Y-89578392D01*
X164104649Y-89789670D01*
X164297340Y-89966759D01*
X164520877Y-90102853D01*
X164766670Y-90192722D01*
X164973000Y-90070201D01*
X164973000Y-89027000D01*
X165227000Y-89027000D01*
X165227000Y-90070201D01*
X165433330Y-90192722D01*
X165679123Y-90102853D01*
X165902660Y-89966759D01*
X166095351Y-89789670D01*
X166249792Y-89578392D01*
X166360047Y-89341044D01*
X166392716Y-89233329D01*
X166269374Y-89027000D01*
X165227000Y-89027000D01*
X164973000Y-89027000D01*
X163930626Y-89027000D01*
X163807284Y-89233329D01*
X161314850Y-89233329D01*
X161355000Y-89031486D01*
X161355000Y-88768514D01*
X161314851Y-88566671D01*
X163807284Y-88566671D01*
X163930626Y-88773000D01*
X164973000Y-88773000D01*
X164973000Y-87729799D01*
X165227000Y-87729799D01*
X165227000Y-88773000D01*
X166269374Y-88773000D01*
X166392716Y-88566671D01*
X166360047Y-88458956D01*
X166249792Y-88221608D01*
X166095351Y-88010330D01*
X165902660Y-87833241D01*
X165679123Y-87697147D01*
X165433330Y-87607278D01*
X165227000Y-87729799D01*
X164973000Y-87729799D01*
X164766670Y-87607278D01*
X164520877Y-87697147D01*
X164297340Y-87833241D01*
X164104649Y-88010330D01*
X163950208Y-88221608D01*
X163839953Y-88458956D01*
X163807284Y-88566671D01*
X161314851Y-88566671D01*
X161303696Y-88510595D01*
X161203061Y-88267641D01*
X161056962Y-88048987D01*
X160871013Y-87863038D01*
X160652359Y-87716939D01*
X160409405Y-87616304D01*
X160151486Y-87565000D01*
X159888514Y-87565000D01*
X159630595Y-87616304D01*
X159387641Y-87716939D01*
X159168987Y-87863038D01*
X158983038Y-88048987D01*
X158836939Y-88267641D01*
X158736304Y-88510595D01*
X158685000Y-88768514D01*
X155208072Y-88768514D01*
X155208072Y-88000000D01*
X155195812Y-87875518D01*
X155159502Y-87755820D01*
X155100537Y-87645506D01*
X155021185Y-87548815D01*
X154924494Y-87469463D01*
X154814180Y-87410498D01*
X154694482Y-87374188D01*
X154570000Y-87361928D01*
X152770000Y-87361928D01*
X152645518Y-87374188D01*
X152525820Y-87410498D01*
X152415506Y-87469463D01*
X152318815Y-87548815D01*
X152239463Y-87645506D01*
X152180498Y-87755820D01*
X152174944Y-87774127D01*
X152108505Y-87707688D01*
X151857095Y-87539701D01*
X151577743Y-87423989D01*
X151281184Y-87365000D01*
X150978816Y-87365000D01*
X150682257Y-87423989D01*
X150402905Y-87539701D01*
X150151495Y-87707688D01*
X149937688Y-87921495D01*
X149769701Y-88172905D01*
X149653989Y-88452257D01*
X149595000Y-88748816D01*
X147014603Y-88748816D01*
X147194309Y-88569110D01*
X147355533Y-88327822D01*
X147466586Y-88059717D01*
X147523200Y-87775098D01*
X147523200Y-87484902D01*
X147481175Y-87273626D01*
X150211004Y-84543798D01*
X150240001Y-84520001D01*
X150334974Y-84404276D01*
X150405546Y-84272247D01*
X150449003Y-84128986D01*
X150460000Y-84017333D01*
X150460000Y-84017332D01*
X150463677Y-83980000D01*
X150460000Y-83942667D01*
X150460000Y-83933949D01*
X150682257Y-84026011D01*
X150978816Y-84085000D01*
X151281184Y-84085000D01*
X151577743Y-84026011D01*
X151857095Y-83910299D01*
X152108505Y-83742312D01*
X152174944Y-83675873D01*
X152180498Y-83694180D01*
X152239463Y-83804494D01*
X152318815Y-83901185D01*
X152415506Y-83980537D01*
X152525820Y-84039502D01*
X152645518Y-84075812D01*
X152770000Y-84088072D01*
X154570000Y-84088072D01*
X154694482Y-84075812D01*
X154814180Y-84039502D01*
X154924494Y-83980537D01*
X155021185Y-83901185D01*
X155100537Y-83804494D01*
X155159502Y-83694180D01*
X155195812Y-83574482D01*
X155208072Y-83450000D01*
X155208072Y-82418514D01*
X158685000Y-82418514D01*
X158685000Y-82681486D01*
X158736304Y-82939405D01*
X158836939Y-83182359D01*
X158983038Y-83401013D01*
X159168987Y-83586962D01*
X159387641Y-83733061D01*
X159630595Y-83833696D01*
X159888514Y-83885000D01*
X160151486Y-83885000D01*
X160409405Y-83833696D01*
X160652359Y-83733061D01*
X160871013Y-83586962D01*
X161056962Y-83401013D01*
X161203061Y-83182359D01*
X161303696Y-82939405D01*
X161314850Y-82883329D01*
X163807284Y-82883329D01*
X163839953Y-82991044D01*
X163950208Y-83228392D01*
X164104649Y-83439670D01*
X164297340Y-83616759D01*
X164520877Y-83752853D01*
X164766670Y-83842722D01*
X164973000Y-83720201D01*
X164973000Y-82677000D01*
X165227000Y-82677000D01*
X165227000Y-83720201D01*
X165433330Y-83842722D01*
X165679123Y-83752853D01*
X165902660Y-83616759D01*
X166095351Y-83439670D01*
X166249792Y-83228392D01*
X166360047Y-82991044D01*
X166392716Y-82883329D01*
X166269374Y-82677000D01*
X165227000Y-82677000D01*
X164973000Y-82677000D01*
X163930626Y-82677000D01*
X163807284Y-82883329D01*
X161314850Y-82883329D01*
X161355000Y-82681486D01*
X161355000Y-82418514D01*
X161314851Y-82216671D01*
X163807284Y-82216671D01*
X163930626Y-82423000D01*
X164973000Y-82423000D01*
X164973000Y-81379799D01*
X165227000Y-81379799D01*
X165227000Y-82423000D01*
X166269374Y-82423000D01*
X166392716Y-82216671D01*
X166360047Y-82108956D01*
X166249792Y-81871608D01*
X166095351Y-81660330D01*
X165902660Y-81483241D01*
X165679123Y-81347147D01*
X165433330Y-81257278D01*
X165227000Y-81379799D01*
X164973000Y-81379799D01*
X164766670Y-81257278D01*
X164520877Y-81347147D01*
X164297340Y-81483241D01*
X164104649Y-81660330D01*
X163950208Y-81871608D01*
X163839953Y-82108956D01*
X163807284Y-82216671D01*
X161314851Y-82216671D01*
X161303696Y-82160595D01*
X161203061Y-81917641D01*
X161056962Y-81698987D01*
X160871013Y-81513038D01*
X160652359Y-81366939D01*
X160409405Y-81266304D01*
X160151486Y-81215000D01*
X159888514Y-81215000D01*
X159630595Y-81266304D01*
X159387641Y-81366939D01*
X159168987Y-81513038D01*
X158983038Y-81698987D01*
X158836939Y-81917641D01*
X158736304Y-82160595D01*
X158685000Y-82418514D01*
X155208072Y-82418514D01*
X155208072Y-81650000D01*
X155195812Y-81525518D01*
X155159502Y-81405820D01*
X155100537Y-81295506D01*
X155021185Y-81198815D01*
X154924494Y-81119463D01*
X154814180Y-81060498D01*
X154694482Y-81024188D01*
X154570000Y-81011928D01*
X152770000Y-81011928D01*
X152645518Y-81024188D01*
X152525820Y-81060498D01*
X152415506Y-81119463D01*
X152318815Y-81198815D01*
X152239463Y-81295506D01*
X152180498Y-81405820D01*
X152174944Y-81424127D01*
X152108505Y-81357688D01*
X151857095Y-81189701D01*
X151577743Y-81073989D01*
X151281184Y-81015000D01*
X150978816Y-81015000D01*
X150682257Y-81073989D01*
X150460000Y-81166051D01*
X150460000Y-77944801D01*
X150721070Y-77683731D01*
X150978816Y-77735000D01*
X151281184Y-77735000D01*
X151577743Y-77676011D01*
X151857095Y-77560299D01*
X152108505Y-77392312D01*
X152174944Y-77325873D01*
X152180498Y-77344180D01*
X152239463Y-77454494D01*
X152318815Y-77551185D01*
X152415506Y-77630537D01*
X152525820Y-77689502D01*
X152645518Y-77725812D01*
X152770000Y-77738072D01*
X154570000Y-77738072D01*
X154694482Y-77725812D01*
X154814180Y-77689502D01*
X154924494Y-77630537D01*
X155021185Y-77551185D01*
X155100537Y-77454494D01*
X155159502Y-77344180D01*
X155195812Y-77224482D01*
X155208072Y-77100000D01*
X155208072Y-76068514D01*
X158685000Y-76068514D01*
X158685000Y-76331486D01*
X158736304Y-76589405D01*
X158836939Y-76832359D01*
X158983038Y-77051013D01*
X159168987Y-77236962D01*
X159387641Y-77383061D01*
X159630595Y-77483696D01*
X159888514Y-77535000D01*
X160151486Y-77535000D01*
X160409405Y-77483696D01*
X160652359Y-77383061D01*
X160871013Y-77236962D01*
X161056962Y-77051013D01*
X161203061Y-76832359D01*
X161303696Y-76589405D01*
X161314850Y-76533329D01*
X163807284Y-76533329D01*
X163839953Y-76641044D01*
X163950208Y-76878392D01*
X164104649Y-77089670D01*
X164297340Y-77266759D01*
X164520877Y-77402853D01*
X164766670Y-77492722D01*
X164973000Y-77370201D01*
X164973000Y-76327000D01*
X165227000Y-76327000D01*
X165227000Y-77370201D01*
X165433330Y-77492722D01*
X165679123Y-77402853D01*
X165902660Y-77266759D01*
X166095351Y-77089670D01*
X166249792Y-76878392D01*
X166360047Y-76641044D01*
X166392716Y-76533329D01*
X166269374Y-76327000D01*
X165227000Y-76327000D01*
X164973000Y-76327000D01*
X163930626Y-76327000D01*
X163807284Y-76533329D01*
X161314850Y-76533329D01*
X161355000Y-76331486D01*
X161355000Y-76068514D01*
X161314851Y-75866671D01*
X163807284Y-75866671D01*
X163930626Y-76073000D01*
X164973000Y-76073000D01*
X164973000Y-75029799D01*
X165227000Y-75029799D01*
X165227000Y-76073000D01*
X166269374Y-76073000D01*
X166392716Y-75866671D01*
X166360047Y-75758956D01*
X166249792Y-75521608D01*
X166095351Y-75310330D01*
X165902660Y-75133241D01*
X165679123Y-74997147D01*
X165433330Y-74907278D01*
X165227000Y-75029799D01*
X164973000Y-75029799D01*
X164766670Y-74907278D01*
X164520877Y-74997147D01*
X164297340Y-75133241D01*
X164104649Y-75310330D01*
X163950208Y-75521608D01*
X163839953Y-75758956D01*
X163807284Y-75866671D01*
X161314851Y-75866671D01*
X161303696Y-75810595D01*
X161203061Y-75567641D01*
X161056962Y-75348987D01*
X160871013Y-75163038D01*
X160652359Y-75016939D01*
X160409405Y-74916304D01*
X160151486Y-74865000D01*
X159888514Y-74865000D01*
X159630595Y-74916304D01*
X159387641Y-75016939D01*
X159168987Y-75163038D01*
X158983038Y-75348987D01*
X158836939Y-75567641D01*
X158736304Y-75810595D01*
X158685000Y-76068514D01*
X155208072Y-76068514D01*
X155208072Y-75300000D01*
X155195812Y-75175518D01*
X155159502Y-75055820D01*
X155100537Y-74945506D01*
X155021185Y-74848815D01*
X154924494Y-74769463D01*
X154814180Y-74710498D01*
X154694482Y-74674188D01*
X154570000Y-74661928D01*
X152770000Y-74661928D01*
X152645518Y-74674188D01*
X152525820Y-74710498D01*
X152415506Y-74769463D01*
X152318815Y-74848815D01*
X152239463Y-74945506D01*
X152180498Y-75055820D01*
X152174944Y-75074127D01*
X152108505Y-75007688D01*
X151857095Y-74839701D01*
X151577743Y-74723989D01*
X151281184Y-74665000D01*
X150978816Y-74665000D01*
X150682257Y-74723989D01*
X150402905Y-74839701D01*
X150151495Y-75007688D01*
X149937688Y-75221495D01*
X149769701Y-75472905D01*
X149653989Y-75752257D01*
X149595000Y-76048816D01*
X149595000Y-76351184D01*
X149646269Y-76608930D01*
X149188998Y-77066201D01*
X149160000Y-77089999D01*
X149136202Y-77118997D01*
X149136201Y-77118998D01*
X149065026Y-77205724D01*
X148994454Y-77337754D01*
X148950998Y-77481015D01*
X148936324Y-77630000D01*
X148940001Y-77667332D01*
X148940000Y-83665198D01*
X147523200Y-85081998D01*
X147523200Y-84944902D01*
X147466586Y-84660283D01*
X147355533Y-84392178D01*
X147194309Y-84150890D01*
X146989110Y-83945691D01*
X146801001Y-83820000D01*
X146989110Y-83694309D01*
X147194309Y-83489110D01*
X147355533Y-83247822D01*
X147466586Y-82979717D01*
X147523200Y-82695098D01*
X147523200Y-82404902D01*
X147466586Y-82120283D01*
X147355533Y-81852178D01*
X147194309Y-81610890D01*
X146989110Y-81405691D01*
X146801001Y-81280000D01*
X146989110Y-81154309D01*
X147194309Y-80949110D01*
X147355533Y-80707822D01*
X147466586Y-80439717D01*
X147523200Y-80155098D01*
X147523200Y-79864902D01*
X147466586Y-79580283D01*
X147355533Y-79312178D01*
X147194309Y-79070890D01*
X146989110Y-78865691D01*
X146801001Y-78740000D01*
X146989110Y-78614309D01*
X147194309Y-78409110D01*
X147355533Y-78167822D01*
X147466586Y-77899717D01*
X147523200Y-77615098D01*
X147523200Y-77324902D01*
X147466586Y-77040283D01*
X147355533Y-76772178D01*
X147194309Y-76530890D01*
X146989110Y-76325691D01*
X146747822Y-76164467D01*
X146479717Y-76053414D01*
X146195098Y-75996800D01*
X145904902Y-75996800D01*
X145640200Y-76049452D01*
X145640200Y-72174901D01*
X150211003Y-67604099D01*
X150240001Y-67580301D01*
X150334974Y-67464576D01*
X150405546Y-67332547D01*
X150449003Y-67189286D01*
X150456829Y-67109827D01*
X150535077Y-67057544D01*
X150700000Y-66892621D01*
X150864923Y-67057544D01*
X151067496Y-67192898D01*
X145960197Y-72300197D01*
X145944403Y-72319443D01*
X145932667Y-72341399D01*
X145925440Y-72365224D01*
X145923000Y-72390000D01*
X145925440Y-72414776D01*
X145932667Y-72438601D01*
X145944403Y-72460557D01*
X145960197Y-72479803D01*
X147230197Y-73749803D01*
X147249443Y-73765597D01*
X147271399Y-73777333D01*
X147295224Y-73784560D01*
X147320000Y-73787000D01*
X165047394Y-73787000D01*
X167513000Y-76252606D01*
X167513000Y-95197394D01*
X165047394Y-97663000D01*
X139700000Y-97663000D01*
X139675224Y-97665440D01*
X139651399Y-97672667D01*
X139629443Y-97684403D01*
X139610197Y-97700197D01*
X134530197Y-102780197D01*
X134514403Y-102799443D01*
X134502667Y-102821399D01*
X134495440Y-102845224D01*
X134493000Y-102870000D01*
X134493000Y-106627394D01*
X133864635Y-107255759D01*
X133827961Y-106988325D01*
X133722795Y-106683912D01*
X133629814Y-106509956D01*
X133365413Y-106414192D01*
X132409605Y-107370000D01*
X132423748Y-107384143D01*
X132244143Y-107563748D01*
X132230000Y-107549605D01*
X132215858Y-107563748D01*
X132036253Y-107384143D01*
X132050395Y-107370000D01*
X131094587Y-106414192D01*
X130830186Y-106509956D01*
X130689296Y-106799571D01*
X130607616Y-107111108D01*
X130588282Y-107432595D01*
X130632039Y-107751675D01*
X130656680Y-107823000D01*
X127301492Y-107823000D01*
X127352384Y-107628892D01*
X127371718Y-107307405D01*
X127327961Y-106988325D01*
X127222795Y-106683912D01*
X127129814Y-106509956D01*
X126865413Y-106414192D01*
X125909605Y-107370000D01*
X125923748Y-107384143D01*
X125744143Y-107563748D01*
X125730000Y-107549605D01*
X125715858Y-107563748D01*
X125536253Y-107384143D01*
X125550395Y-107370000D01*
X124594587Y-106414192D01*
X124330186Y-106509956D01*
X124189296Y-106799571D01*
X124107616Y-107111108D01*
X124090206Y-107400600D01*
X123317000Y-106627394D01*
X123317000Y-106234587D01*
X124774192Y-106234587D01*
X125730000Y-107190395D01*
X126685808Y-106234587D01*
X131274192Y-106234587D01*
X132230000Y-107190395D01*
X133185808Y-106234587D01*
X133090044Y-105970186D01*
X132800429Y-105829296D01*
X132488892Y-105747616D01*
X132167405Y-105728282D01*
X131848325Y-105772039D01*
X131543912Y-105877205D01*
X131369956Y-105970186D01*
X131274192Y-106234587D01*
X126685808Y-106234587D01*
X126590044Y-105970186D01*
X126300429Y-105829296D01*
X125988892Y-105747616D01*
X125667405Y-105728282D01*
X125348325Y-105772039D01*
X125043912Y-105877205D01*
X124869956Y-105970186D01*
X124774192Y-106234587D01*
X123317000Y-106234587D01*
X123317000Y-102708967D01*
X124095000Y-102708967D01*
X124095000Y-103031033D01*
X124157832Y-103346912D01*
X124281082Y-103644463D01*
X124460013Y-103912252D01*
X124687748Y-104139987D01*
X124955537Y-104318918D01*
X125253088Y-104442168D01*
X125568967Y-104505000D01*
X125891033Y-104505000D01*
X126206912Y-104442168D01*
X126504463Y-104318918D01*
X126772252Y-104139987D01*
X126999987Y-103912252D01*
X127178918Y-103644463D01*
X127302168Y-103346912D01*
X127365000Y-103031033D01*
X127365000Y-102708967D01*
X127302168Y-102393088D01*
X127178918Y-102095537D01*
X126999987Y-101827748D01*
X126772252Y-101600013D01*
X126504463Y-101421082D01*
X126206912Y-101297832D01*
X125891033Y-101235000D01*
X125568967Y-101235000D01*
X125253088Y-101297832D01*
X124955537Y-101421082D01*
X124687748Y-101600013D01*
X124460013Y-101827748D01*
X124281082Y-102095537D01*
X124157832Y-102393088D01*
X124095000Y-102708967D01*
X123317000Y-102708967D01*
X123317000Y-95805413D01*
X124774192Y-95805413D01*
X124869956Y-96069814D01*
X125159571Y-96210704D01*
X125471108Y-96292384D01*
X125792595Y-96311718D01*
X126111675Y-96267961D01*
X126416088Y-96162795D01*
X126590044Y-96069814D01*
X126685808Y-95805413D01*
X131274192Y-95805413D01*
X131369956Y-96069814D01*
X131659571Y-96210704D01*
X131971108Y-96292384D01*
X132292595Y-96311718D01*
X132611675Y-96267961D01*
X132916088Y-96162795D01*
X133090044Y-96069814D01*
X133185808Y-95805413D01*
X132230000Y-94849605D01*
X131274192Y-95805413D01*
X126685808Y-95805413D01*
X125730000Y-94849605D01*
X124774192Y-95805413D01*
X123317000Y-95805413D01*
X123317000Y-94732595D01*
X124088282Y-94732595D01*
X124132039Y-95051675D01*
X124237205Y-95356088D01*
X124330186Y-95530044D01*
X124594587Y-95625808D01*
X125550395Y-94670000D01*
X125909605Y-94670000D01*
X126865413Y-95625808D01*
X127129814Y-95530044D01*
X127270704Y-95240429D01*
X127352384Y-94928892D01*
X127364189Y-94732595D01*
X130588282Y-94732595D01*
X130632039Y-95051675D01*
X130737205Y-95356088D01*
X130830186Y-95530044D01*
X131094587Y-95625808D01*
X132050395Y-94670000D01*
X132409605Y-94670000D01*
X133365413Y-95625808D01*
X133629814Y-95530044D01*
X133770704Y-95240429D01*
X133852384Y-94928892D01*
X133871718Y-94607405D01*
X133827961Y-94288325D01*
X133722795Y-93983912D01*
X133629814Y-93809956D01*
X133365413Y-93714192D01*
X132409605Y-94670000D01*
X132050395Y-94670000D01*
X131094587Y-93714192D01*
X130830186Y-93809956D01*
X130689296Y-94099571D01*
X130607616Y-94411108D01*
X130588282Y-94732595D01*
X127364189Y-94732595D01*
X127371718Y-94607405D01*
X127327961Y-94288325D01*
X127222795Y-93983912D01*
X127129814Y-93809956D01*
X126865413Y-93714192D01*
X125909605Y-94670000D01*
X125550395Y-94670000D01*
X124594587Y-93714192D01*
X124330186Y-93809956D01*
X124189296Y-94099571D01*
X124107616Y-94411108D01*
X124088282Y-94732595D01*
X123317000Y-94732595D01*
X123317000Y-93534587D01*
X124774192Y-93534587D01*
X125730000Y-94490395D01*
X126685808Y-93534587D01*
X131274192Y-93534587D01*
X132230000Y-94490395D01*
X133185808Y-93534587D01*
X133090044Y-93270186D01*
X132800429Y-93129296D01*
X132488892Y-93047616D01*
X132167405Y-93028282D01*
X131848325Y-93072039D01*
X131543912Y-93177205D01*
X131369956Y-93270186D01*
X131274192Y-93534587D01*
X126685808Y-93534587D01*
X126590044Y-93270186D01*
X126300429Y-93129296D01*
X125988892Y-93047616D01*
X125667405Y-93028282D01*
X125348325Y-93072039D01*
X125043912Y-93177205D01*
X124869956Y-93270186D01*
X124774192Y-93534587D01*
X123317000Y-93534587D01*
X123317000Y-90008967D01*
X124095000Y-90008967D01*
X124095000Y-90331033D01*
X124157832Y-90646912D01*
X124281082Y-90944463D01*
X124460013Y-91212252D01*
X124687748Y-91439987D01*
X124955537Y-91618918D01*
X125253088Y-91742168D01*
X125568967Y-91805000D01*
X125891033Y-91805000D01*
X126206912Y-91742168D01*
X126504463Y-91618918D01*
X126772252Y-91439987D01*
X126999987Y-91212252D01*
X127178918Y-90944463D01*
X127302168Y-90646912D01*
X127365000Y-90331033D01*
X127365000Y-90008967D01*
X130595000Y-90008967D01*
X130595000Y-90331033D01*
X130657832Y-90646912D01*
X130781082Y-90944463D01*
X130960013Y-91212252D01*
X131187748Y-91439987D01*
X131455537Y-91618918D01*
X131753088Y-91742168D01*
X132068967Y-91805000D01*
X132391033Y-91805000D01*
X132706912Y-91742168D01*
X133004463Y-91618918D01*
X133272252Y-91439987D01*
X133499987Y-91212252D01*
X133678918Y-90944463D01*
X133802168Y-90646912D01*
X133865000Y-90331033D01*
X133865000Y-90008967D01*
X133802168Y-89693088D01*
X133678918Y-89395537D01*
X133499987Y-89127748D01*
X133272252Y-88900013D01*
X133004463Y-88721082D01*
X132706912Y-88597832D01*
X132391033Y-88535000D01*
X132068967Y-88535000D01*
X131753088Y-88597832D01*
X131455537Y-88721082D01*
X131187748Y-88900013D01*
X130960013Y-89127748D01*
X130781082Y-89395537D01*
X130657832Y-89693088D01*
X130595000Y-90008967D01*
X127365000Y-90008967D01*
X127302168Y-89693088D01*
X127178918Y-89395537D01*
X126999987Y-89127748D01*
X126772252Y-88900013D01*
X126504463Y-88721082D01*
X126206912Y-88597832D01*
X125891033Y-88535000D01*
X125568967Y-88535000D01*
X125253088Y-88597832D01*
X124955537Y-88721082D01*
X124687748Y-88900013D01*
X124460013Y-89127748D01*
X124281082Y-89395537D01*
X124157832Y-89693088D01*
X124095000Y-90008967D01*
X123317000Y-90008967D01*
X123317000Y-83105413D01*
X124624192Y-83105413D01*
X124719956Y-83369814D01*
X125009571Y-83510704D01*
X125321108Y-83592384D01*
X125642595Y-83611718D01*
X125961675Y-83567961D01*
X126266088Y-83462795D01*
X126440044Y-83369814D01*
X126535808Y-83105413D01*
X131124192Y-83105413D01*
X131219956Y-83369814D01*
X131509571Y-83510704D01*
X131821108Y-83592384D01*
X132142595Y-83611718D01*
X132461675Y-83567961D01*
X132766088Y-83462795D01*
X132940044Y-83369814D01*
X133035808Y-83105413D01*
X132080000Y-82149605D01*
X131124192Y-83105413D01*
X126535808Y-83105413D01*
X125580000Y-82149605D01*
X124624192Y-83105413D01*
X123317000Y-83105413D01*
X123317000Y-82602606D01*
X123941563Y-81978043D01*
X123938282Y-82032595D01*
X123982039Y-82351675D01*
X124087205Y-82656088D01*
X124180186Y-82830044D01*
X124444587Y-82925808D01*
X125400395Y-81970000D01*
X125386253Y-81955858D01*
X125565858Y-81776253D01*
X125580000Y-81790395D01*
X125594143Y-81776253D01*
X125773748Y-81955858D01*
X125759605Y-81970000D01*
X126715413Y-82925808D01*
X126979814Y-82830044D01*
X127120704Y-82540429D01*
X127202384Y-82228892D01*
X127214189Y-82032595D01*
X130438282Y-82032595D01*
X130482039Y-82351675D01*
X130587205Y-82656088D01*
X130680186Y-82830044D01*
X130944587Y-82925808D01*
X131900395Y-81970000D01*
X132259605Y-81970000D01*
X133215413Y-82925808D01*
X133479814Y-82830044D01*
X133620704Y-82540429D01*
X133702384Y-82228892D01*
X133721718Y-81907405D01*
X133677961Y-81588325D01*
X133572795Y-81283912D01*
X133479814Y-81109956D01*
X133215413Y-81014192D01*
X132259605Y-81970000D01*
X131900395Y-81970000D01*
X130944587Y-81014192D01*
X130680186Y-81109956D01*
X130539296Y-81399571D01*
X130457616Y-81711108D01*
X130438282Y-82032595D01*
X127214189Y-82032595D01*
X127221718Y-81907405D01*
X127177961Y-81588325D01*
X127115318Y-81407000D01*
X129540000Y-81407000D01*
X129564776Y-81404560D01*
X129588601Y-81397333D01*
X129610557Y-81385597D01*
X129629803Y-81369803D01*
X130165019Y-80834587D01*
X131124192Y-80834587D01*
X132080000Y-81790395D01*
X133035808Y-80834587D01*
X132940044Y-80570186D01*
X132650429Y-80429296D01*
X132338892Y-80347616D01*
X132017405Y-80328282D01*
X131698325Y-80372039D01*
X131393912Y-80477205D01*
X131219956Y-80570186D01*
X131124192Y-80834587D01*
X130165019Y-80834587D01*
X130899803Y-80099803D01*
X130915597Y-80080557D01*
X130927333Y-80058601D01*
X130934560Y-80034776D01*
X130937000Y-80010000D01*
X130937000Y-78639239D01*
X131037748Y-78739987D01*
X131305537Y-78918918D01*
X131603088Y-79042168D01*
X131918967Y-79105000D01*
X132241033Y-79105000D01*
X132556912Y-79042168D01*
X132854463Y-78918918D01*
X133122252Y-78739987D01*
X133349987Y-78512252D01*
X133528918Y-78244463D01*
X133652168Y-77946912D01*
X133715000Y-77631033D01*
X133715000Y-77308967D01*
X133652168Y-76993088D01*
X133528918Y-76695537D01*
X133349987Y-76427748D01*
X133122252Y-76200013D01*
X132854463Y-76021082D01*
X132556912Y-75897832D01*
X132241033Y-75835000D01*
X131918967Y-75835000D01*
X131603088Y-75897832D01*
X131305537Y-76021082D01*
X131037748Y-76200013D01*
X130937000Y-76300761D01*
X130937000Y-71675413D01*
X131274192Y-71675413D01*
X131369956Y-71939814D01*
X131659571Y-72080704D01*
X131971108Y-72162384D01*
X132292595Y-72181718D01*
X132611675Y-72137961D01*
X132916088Y-72032795D01*
X133090044Y-71939814D01*
X133185808Y-71675413D01*
X132230000Y-70719605D01*
X131274192Y-71675413D01*
X130937000Y-71675413D01*
X130937000Y-71438731D01*
X131094587Y-71495808D01*
X132050395Y-70540000D01*
X132409605Y-70540000D01*
X133365413Y-71495808D01*
X133629814Y-71400044D01*
X133770704Y-71110429D01*
X133852384Y-70798892D01*
X133871718Y-70477405D01*
X133827961Y-70158325D01*
X133722795Y-69853912D01*
X133629814Y-69679956D01*
X133365413Y-69584192D01*
X132409605Y-70540000D01*
X132050395Y-70540000D01*
X132036253Y-70525858D01*
X132215858Y-70346253D01*
X132230000Y-70360395D01*
X133185808Y-69404587D01*
X133090044Y-69140186D01*
X132800429Y-68999296D01*
X132488892Y-68917616D01*
X132167405Y-68898282D01*
X131905393Y-68934213D01*
X132132606Y-68707000D01*
X134620000Y-68707000D01*
X134644776Y-68704560D01*
X134668601Y-68697333D01*
X134690557Y-68685597D01*
X134709803Y-68669803D01*
X136664606Y-66715000D01*
X138386928Y-66715000D01*
X138399188Y-66839482D01*
X138435498Y-66959180D01*
X138494463Y-67069494D01*
X138573815Y-67166185D01*
X138670506Y-67245537D01*
X138780820Y-67304502D01*
X138900518Y-67340812D01*
X139025000Y-67353072D01*
X139414250Y-67350000D01*
X139573000Y-67191250D01*
X139573000Y-66167000D01*
X138548750Y-66167000D01*
X138390000Y-66325750D01*
X138386928Y-66715000D01*
X136664606Y-66715000D01*
X138014606Y-65365000D01*
X138386928Y-65365000D01*
X138390000Y-65754250D01*
X138548750Y-65913000D01*
X139573000Y-65913000D01*
X139573000Y-64888750D01*
X139414250Y-64730000D01*
X139025000Y-64726928D01*
X138900518Y-64739188D01*
X138780820Y-64775498D01*
X138670506Y-64834463D01*
X138573815Y-64913815D01*
X138494463Y-65010506D01*
X138435498Y-65120820D01*
X138399188Y-65240518D01*
X138386928Y-65365000D01*
X138014606Y-65365000D01*
X139752606Y-63627000D01*
X150524680Y-63627000D01*
X151211838Y-63761444D01*
G37*
X151211838Y-63761444D02*
X152273000Y-64822606D01*
X152273000Y-64859410D01*
X152082113Y-64780342D01*
X151829024Y-64730000D01*
X151570976Y-64730000D01*
X151317887Y-64780342D01*
X151079482Y-64879093D01*
X150864923Y-65022456D01*
X150700000Y-65187379D01*
X150535077Y-65022456D01*
X150320518Y-64879093D01*
X150082113Y-64780342D01*
X149829024Y-64730000D01*
X149570976Y-64730000D01*
X149317887Y-64780342D01*
X149079482Y-64879093D01*
X148864923Y-65022456D01*
X148700000Y-65187379D01*
X148535077Y-65022456D01*
X148320518Y-64879093D01*
X148082113Y-64780342D01*
X147829024Y-64730000D01*
X147570976Y-64730000D01*
X147317887Y-64780342D01*
X147079482Y-64879093D01*
X146864923Y-65022456D01*
X146700000Y-65187379D01*
X146535077Y-65022456D01*
X146320518Y-64879093D01*
X146082113Y-64780342D01*
X145829024Y-64730000D01*
X145570976Y-64730000D01*
X145317887Y-64780342D01*
X145079482Y-64879093D01*
X144864923Y-65022456D01*
X144700000Y-65187379D01*
X144535077Y-65022456D01*
X144320518Y-64879093D01*
X144082113Y-64780342D01*
X143829024Y-64730000D01*
X143570976Y-64730000D01*
X143317887Y-64780342D01*
X143079482Y-64879093D01*
X142864923Y-65022456D01*
X142700000Y-65187379D01*
X142535077Y-65022456D01*
X142320518Y-64879093D01*
X142082113Y-64780342D01*
X141829024Y-64730000D01*
X141570976Y-64730000D01*
X141317887Y-64780342D01*
X141079482Y-64879093D01*
X140897487Y-65000697D01*
X140826185Y-64913815D01*
X140729494Y-64834463D01*
X140619180Y-64775498D01*
X140499482Y-64739188D01*
X140375000Y-64726928D01*
X139985750Y-64730000D01*
X139827000Y-64888750D01*
X139827000Y-65913000D01*
X139847000Y-65913000D01*
X139847000Y-66167000D01*
X139827000Y-66167000D01*
X139827000Y-67191250D01*
X139985750Y-67350000D01*
X140375000Y-67353072D01*
X140499482Y-67340812D01*
X140619180Y-67304502D01*
X140729494Y-67245537D01*
X140826185Y-67166185D01*
X140897487Y-67079303D01*
X141079482Y-67200907D01*
X141317887Y-67299658D01*
X141570976Y-67350000D01*
X141829024Y-67350000D01*
X142082113Y-67299658D01*
X142320518Y-67200907D01*
X142535077Y-67057544D01*
X142700000Y-66892621D01*
X142800980Y-66993601D01*
X142780197Y-67062115D01*
X142769200Y-67173768D01*
X142769200Y-67173778D01*
X142765524Y-67211100D01*
X142769200Y-67248422D01*
X142769201Y-77135997D01*
X139903200Y-80001999D01*
X139903200Y-79864902D01*
X139846586Y-79580283D01*
X139735533Y-79312178D01*
X139574309Y-79070890D01*
X139369110Y-78865691D01*
X139183053Y-78741371D01*
X139183342Y-78738436D01*
X139369110Y-78614309D01*
X139574309Y-78409110D01*
X139735533Y-78167822D01*
X139846586Y-77899717D01*
X139903200Y-77615098D01*
X139903200Y-77324902D01*
X139846586Y-77040283D01*
X139735533Y-76772178D01*
X139574309Y-76530890D01*
X139369110Y-76325691D01*
X139127822Y-76164467D01*
X138859717Y-76053414D01*
X138575098Y-75996800D01*
X138284902Y-75996800D01*
X138000283Y-76053414D01*
X137732178Y-76164467D01*
X137490890Y-76325691D01*
X137285691Y-76530890D01*
X137124467Y-76772178D01*
X137013414Y-77040283D01*
X136956800Y-77324902D01*
X136956800Y-77615098D01*
X137013414Y-77899717D01*
X137124467Y-78167822D01*
X137285691Y-78409110D01*
X137287190Y-78410609D01*
X136138698Y-79559101D01*
X136109700Y-79582899D01*
X136085902Y-79611897D01*
X136085901Y-79611898D01*
X136014726Y-79698624D01*
X135944154Y-79830654D01*
X135900698Y-79973915D01*
X135886024Y-80122900D01*
X135889701Y-80160233D01*
X135889700Y-98135498D01*
X132721376Y-101303823D01*
X132706912Y-101297832D01*
X132391033Y-101235000D01*
X132068967Y-101235000D01*
X131753088Y-101297832D01*
X131455537Y-101421082D01*
X131187748Y-101600013D01*
X130960013Y-101827748D01*
X130781082Y-102095537D01*
X130657832Y-102393088D01*
X130595000Y-102708967D01*
X130595000Y-103031033D01*
X130657832Y-103346912D01*
X130781082Y-103644463D01*
X130960013Y-103912252D01*
X131187748Y-104139987D01*
X131455537Y-104318918D01*
X131753088Y-104442168D01*
X132068967Y-104505000D01*
X132391033Y-104505000D01*
X132706912Y-104442168D01*
X133004463Y-104318918D01*
X133272252Y-104139987D01*
X133499987Y-103912252D01*
X133678918Y-103644463D01*
X133802168Y-103346912D01*
X133865000Y-103031033D01*
X133865000Y-102708967D01*
X133802168Y-102393088D01*
X133796177Y-102378624D01*
X137160704Y-99014098D01*
X137189701Y-98990301D01*
X137284674Y-98874576D01*
X137355246Y-98742547D01*
X137398703Y-98599286D01*
X137409700Y-98487633D01*
X137409700Y-98487625D01*
X137413376Y-98450300D01*
X137409700Y-98412975D01*
X137409700Y-96696534D01*
X137467318Y-96714012D01*
X137591800Y-96726272D01*
X138144250Y-96723200D01*
X138303000Y-96564450D01*
X138303000Y-95377000D01*
X138557000Y-95377000D01*
X138557000Y-96564450D01*
X138715750Y-96723200D01*
X139268200Y-96726272D01*
X139392682Y-96714012D01*
X139512380Y-96677702D01*
X139622694Y-96618737D01*
X139719385Y-96539385D01*
X139798737Y-96442694D01*
X139857702Y-96332380D01*
X139894012Y-96212682D01*
X139906272Y-96088200D01*
X139903200Y-95535750D01*
X139744450Y-95377000D01*
X138557000Y-95377000D01*
X138303000Y-95377000D01*
X138283000Y-95377000D01*
X138283000Y-95123000D01*
X138303000Y-95123000D01*
X138303000Y-95103000D01*
X138557000Y-95103000D01*
X138557000Y-95123000D01*
X139744450Y-95123000D01*
X139903200Y-94964250D01*
X139906272Y-94411800D01*
X139894012Y-94287318D01*
X139857702Y-94167620D01*
X139798737Y-94057306D01*
X139719385Y-93960615D01*
X139622694Y-93881263D01*
X139512380Y-93822298D01*
X139427016Y-93796403D01*
X139574309Y-93649110D01*
X139735533Y-93407822D01*
X139846586Y-93139717D01*
X139903200Y-92855098D01*
X139903200Y-92564902D01*
X139846586Y-92280283D01*
X139735533Y-92012178D01*
X139574309Y-91770890D01*
X139369110Y-91565691D01*
X139181001Y-91440000D01*
X139369110Y-91314309D01*
X139574309Y-91109110D01*
X139735533Y-90867822D01*
X139846586Y-90599717D01*
X139903200Y-90315098D01*
X139903200Y-90024902D01*
X139846586Y-89740283D01*
X139735533Y-89472178D01*
X139574309Y-89230890D01*
X139369110Y-89025691D01*
X139181001Y-88900000D01*
X139369110Y-88774309D01*
X139574309Y-88569110D01*
X139735533Y-88327822D01*
X139846586Y-88059717D01*
X139903200Y-87775098D01*
X139903200Y-87484902D01*
X139846586Y-87200283D01*
X139735533Y-86932178D01*
X139574309Y-86690890D01*
X139369110Y-86485691D01*
X139181001Y-86360000D01*
X139369110Y-86234309D01*
X139574309Y-86029110D01*
X139735533Y-85787822D01*
X139846586Y-85519717D01*
X139903200Y-85235098D01*
X139903200Y-84944902D01*
X139846586Y-84660283D01*
X139735533Y-84392178D01*
X139574309Y-84150890D01*
X139369110Y-83945691D01*
X139181001Y-83820000D01*
X139369110Y-83694309D01*
X139574309Y-83489110D01*
X139735533Y-83247822D01*
X139846586Y-82979717D01*
X139903200Y-82695098D01*
X139903200Y-82404902D01*
X139861175Y-82193626D01*
X143219500Y-78835301D01*
X143219501Y-90602167D01*
X143215824Y-90639500D01*
X143219501Y-90676833D01*
X143230498Y-90788486D01*
X143243680Y-90831942D01*
X143273954Y-90931746D01*
X143344526Y-91063776D01*
X143392494Y-91122224D01*
X143439500Y-91179501D01*
X143468498Y-91203299D01*
X144618825Y-92353627D01*
X144576800Y-92564902D01*
X144576800Y-92855098D01*
X144633414Y-93139717D01*
X144744467Y-93407822D01*
X144905691Y-93649110D01*
X145110890Y-93854309D01*
X145298999Y-93980000D01*
X145110890Y-94105691D01*
X144905691Y-94310890D01*
X144744467Y-94552178D01*
X144633414Y-94820283D01*
X144576800Y-95104902D01*
X144576800Y-95395098D01*
X144633414Y-95679717D01*
X144744467Y-95947822D01*
X144905691Y-96189110D01*
X145110890Y-96394309D01*
X145352178Y-96555533D01*
X145620283Y-96666586D01*
X145904902Y-96723200D01*
X146195098Y-96723200D01*
X146479717Y-96666586D01*
X146747822Y-96555533D01*
X146989110Y-96394309D01*
X147194309Y-96189110D01*
X147355533Y-95947822D01*
X147466586Y-95679717D01*
X147523200Y-95395098D01*
X147523200Y-95104902D01*
X147521990Y-95098816D01*
X149595000Y-95098816D01*
X149595000Y-95401184D01*
X149653989Y-95697743D01*
X149769701Y-95977095D01*
X149937688Y-96228505D01*
X150151495Y-96442312D01*
X150402905Y-96610299D01*
X150682257Y-96726011D01*
X150978816Y-96785000D01*
X151281184Y-96785000D01*
X151577743Y-96726011D01*
X151857095Y-96610299D01*
X152108505Y-96442312D01*
X152174944Y-96375873D01*
X152180498Y-96394180D01*
X152239463Y-96504494D01*
X152318815Y-96601185D01*
X152415506Y-96680537D01*
X152525820Y-96739502D01*
X152645518Y-96775812D01*
X152770000Y-96788072D01*
X154570000Y-96788072D01*
X154694482Y-96775812D01*
X154814180Y-96739502D01*
X154924494Y-96680537D01*
X155021185Y-96601185D01*
X155100537Y-96504494D01*
X155159502Y-96394180D01*
X155195812Y-96274482D01*
X155208072Y-96150000D01*
X155208072Y-95118514D01*
X158685000Y-95118514D01*
X158685000Y-95381486D01*
X158736304Y-95639405D01*
X158836939Y-95882359D01*
X158983038Y-96101013D01*
X159168987Y-96286962D01*
X159387641Y-96433061D01*
X159630595Y-96533696D01*
X159888514Y-96585000D01*
X160151486Y-96585000D01*
X160409405Y-96533696D01*
X160652359Y-96433061D01*
X160871013Y-96286962D01*
X161056962Y-96101013D01*
X161203061Y-95882359D01*
X161303696Y-95639405D01*
X161314850Y-95583329D01*
X163807284Y-95583329D01*
X163839953Y-95691044D01*
X163950208Y-95928392D01*
X164104649Y-96139670D01*
X164297340Y-96316759D01*
X164520877Y-96452853D01*
X164766670Y-96542722D01*
X164973000Y-96420201D01*
X164973000Y-95377000D01*
X165227000Y-95377000D01*
X165227000Y-96420201D01*
X165433330Y-96542722D01*
X165679123Y-96452853D01*
X165902660Y-96316759D01*
X166095351Y-96139670D01*
X166249792Y-95928392D01*
X166360047Y-95691044D01*
X166392716Y-95583329D01*
X166269374Y-95377000D01*
X165227000Y-95377000D01*
X164973000Y-95377000D01*
X163930626Y-95377000D01*
X163807284Y-95583329D01*
X161314850Y-95583329D01*
X161355000Y-95381486D01*
X161355000Y-95118514D01*
X161314851Y-94916671D01*
X163807284Y-94916671D01*
X163930626Y-95123000D01*
X164973000Y-95123000D01*
X164973000Y-94079799D01*
X165227000Y-94079799D01*
X165227000Y-95123000D01*
X166269374Y-95123000D01*
X166392716Y-94916671D01*
X166360047Y-94808956D01*
X166249792Y-94571608D01*
X166095351Y-94360330D01*
X165902660Y-94183241D01*
X165679123Y-94047147D01*
X165433330Y-93957278D01*
X165227000Y-94079799D01*
X164973000Y-94079799D01*
X164766670Y-93957278D01*
X164520877Y-94047147D01*
X164297340Y-94183241D01*
X164104649Y-94360330D01*
X163950208Y-94571608D01*
X163839953Y-94808956D01*
X163807284Y-94916671D01*
X161314851Y-94916671D01*
X161303696Y-94860595D01*
X161203061Y-94617641D01*
X161056962Y-94398987D01*
X160871013Y-94213038D01*
X160652359Y-94066939D01*
X160409405Y-93966304D01*
X160151486Y-93915000D01*
X159888514Y-93915000D01*
X159630595Y-93966304D01*
X159387641Y-94066939D01*
X159168987Y-94213038D01*
X158983038Y-94398987D01*
X158836939Y-94617641D01*
X158736304Y-94860595D01*
X158685000Y-95118514D01*
X155208072Y-95118514D01*
X155208072Y-94350000D01*
X155195812Y-94225518D01*
X155159502Y-94105820D01*
X155100537Y-93995506D01*
X155021185Y-93898815D01*
X154924494Y-93819463D01*
X154814180Y-93760498D01*
X154694482Y-93724188D01*
X154570000Y-93711928D01*
X152770000Y-93711928D01*
X152645518Y-93724188D01*
X152525820Y-93760498D01*
X152415506Y-93819463D01*
X152318815Y-93898815D01*
X152239463Y-93995506D01*
X152180498Y-94105820D01*
X152174944Y-94124127D01*
X152108505Y-94057688D01*
X151857095Y-93889701D01*
X151577743Y-93773989D01*
X151281184Y-93715000D01*
X150978816Y-93715000D01*
X150682257Y-93773989D01*
X150402905Y-93889701D01*
X150151495Y-94057688D01*
X149937688Y-94271495D01*
X149769701Y-94522905D01*
X149653989Y-94802257D01*
X149595000Y-95098816D01*
X147521990Y-95098816D01*
X147481175Y-94893627D01*
X147763104Y-94611698D01*
X147792101Y-94587901D01*
X147845442Y-94522905D01*
X147887074Y-94472177D01*
X147957646Y-94340147D01*
X147978471Y-94271495D01*
X148001103Y-94196886D01*
X148012100Y-94085233D01*
X148012100Y-94085224D01*
X148015776Y-94047901D01*
X148012100Y-94010578D01*
X148012100Y-92264122D01*
X148015776Y-92226799D01*
X148012100Y-92189476D01*
X148012100Y-92189467D01*
X148001103Y-92077814D01*
X147957646Y-91934553D01*
X147887074Y-91802524D01*
X147861113Y-91770890D01*
X147815899Y-91715796D01*
X147815895Y-91715792D01*
X147792101Y-91686799D01*
X147763108Y-91663005D01*
X147200278Y-91100177D01*
X147355533Y-90867822D01*
X147466586Y-90599717D01*
X147523200Y-90315098D01*
X147523200Y-90024902D01*
X147466586Y-89740283D01*
X147355533Y-89472178D01*
X147194309Y-89230890D01*
X146989110Y-89025691D01*
X146801001Y-88900000D01*
X146989110Y-88774309D01*
X147014603Y-88748816D01*
X149595000Y-88748816D01*
X149595000Y-89051184D01*
X149653989Y-89347743D01*
X149769701Y-89627095D01*
X149937688Y-89878505D01*
X150151495Y-90092312D01*
X150402905Y-90260299D01*
X150682257Y-90376011D01*
X150978816Y-90435000D01*
X151281184Y-90435000D01*
X151577743Y-90376011D01*
X151857095Y-90260299D01*
X152108505Y-90092312D01*
X152174944Y-90025873D01*
X152180498Y-90044180D01*
X152239463Y-90154494D01*
X152318815Y-90251185D01*
X152415506Y-90330537D01*
X152525820Y-90389502D01*
X152645518Y-90425812D01*
X152770000Y-90438072D01*
X154570000Y-90438072D01*
X154694482Y-90425812D01*
X154814180Y-90389502D01*
X154924494Y-90330537D01*
X155021185Y-90251185D01*
X155100537Y-90154494D01*
X155159502Y-90044180D01*
X155195812Y-89924482D01*
X155208072Y-89800000D01*
X155208072Y-88768514D01*
X158685000Y-88768514D01*
X158685000Y-89031486D01*
X158736304Y-89289405D01*
X158836939Y-89532359D01*
X158983038Y-89751013D01*
X159168987Y-89936962D01*
X159387641Y-90083061D01*
X159630595Y-90183696D01*
X159888514Y-90235000D01*
X160151486Y-90235000D01*
X160409405Y-90183696D01*
X160652359Y-90083061D01*
X160871013Y-89936962D01*
X161056962Y-89751013D01*
X161203061Y-89532359D01*
X161303696Y-89289405D01*
X161314850Y-89233329D01*
X163807284Y-89233329D01*
X163839953Y-89341044D01*
X163950208Y-89578392D01*
X164104649Y-89789670D01*
X164297340Y-89966759D01*
X164520877Y-90102853D01*
X164766670Y-90192722D01*
X164973000Y-90070201D01*
X164973000Y-89027000D01*
X165227000Y-89027000D01*
X165227000Y-90070201D01*
X165433330Y-90192722D01*
X165679123Y-90102853D01*
X165902660Y-89966759D01*
X166095351Y-89789670D01*
X166249792Y-89578392D01*
X166360047Y-89341044D01*
X166392716Y-89233329D01*
X166269374Y-89027000D01*
X165227000Y-89027000D01*
X164973000Y-89027000D01*
X163930626Y-89027000D01*
X163807284Y-89233329D01*
X161314850Y-89233329D01*
X161355000Y-89031486D01*
X161355000Y-88768514D01*
X161314851Y-88566671D01*
X163807284Y-88566671D01*
X163930626Y-88773000D01*
X164973000Y-88773000D01*
X164973000Y-87729799D01*
X165227000Y-87729799D01*
X165227000Y-88773000D01*
X166269374Y-88773000D01*
X166392716Y-88566671D01*
X166360047Y-88458956D01*
X166249792Y-88221608D01*
X166095351Y-88010330D01*
X165902660Y-87833241D01*
X165679123Y-87697147D01*
X165433330Y-87607278D01*
X165227000Y-87729799D01*
X164973000Y-87729799D01*
X164766670Y-87607278D01*
X164520877Y-87697147D01*
X164297340Y-87833241D01*
X164104649Y-88010330D01*
X163950208Y-88221608D01*
X163839953Y-88458956D01*
X163807284Y-88566671D01*
X161314851Y-88566671D01*
X161303696Y-88510595D01*
X161203061Y-88267641D01*
X161056962Y-88048987D01*
X160871013Y-87863038D01*
X160652359Y-87716939D01*
X160409405Y-87616304D01*
X160151486Y-87565000D01*
X159888514Y-87565000D01*
X159630595Y-87616304D01*
X159387641Y-87716939D01*
X159168987Y-87863038D01*
X158983038Y-88048987D01*
X158836939Y-88267641D01*
X158736304Y-88510595D01*
X158685000Y-88768514D01*
X155208072Y-88768514D01*
X155208072Y-88000000D01*
X155195812Y-87875518D01*
X155159502Y-87755820D01*
X155100537Y-87645506D01*
X155021185Y-87548815D01*
X154924494Y-87469463D01*
X154814180Y-87410498D01*
X154694482Y-87374188D01*
X154570000Y-87361928D01*
X152770000Y-87361928D01*
X152645518Y-87374188D01*
X152525820Y-87410498D01*
X152415506Y-87469463D01*
X152318815Y-87548815D01*
X152239463Y-87645506D01*
X152180498Y-87755820D01*
X152174944Y-87774127D01*
X152108505Y-87707688D01*
X151857095Y-87539701D01*
X151577743Y-87423989D01*
X151281184Y-87365000D01*
X150978816Y-87365000D01*
X150682257Y-87423989D01*
X150402905Y-87539701D01*
X150151495Y-87707688D01*
X149937688Y-87921495D01*
X149769701Y-88172905D01*
X149653989Y-88452257D01*
X149595000Y-88748816D01*
X147014603Y-88748816D01*
X147194309Y-88569110D01*
X147355533Y-88327822D01*
X147466586Y-88059717D01*
X147523200Y-87775098D01*
X147523200Y-87484902D01*
X147481175Y-87273626D01*
X150211004Y-84543798D01*
X150240001Y-84520001D01*
X150334974Y-84404276D01*
X150405546Y-84272247D01*
X150449003Y-84128986D01*
X150460000Y-84017333D01*
X150460000Y-84017332D01*
X150463677Y-83980000D01*
X150460000Y-83942667D01*
X150460000Y-83933949D01*
X150682257Y-84026011D01*
X150978816Y-84085000D01*
X151281184Y-84085000D01*
X151577743Y-84026011D01*
X151857095Y-83910299D01*
X152108505Y-83742312D01*
X152174944Y-83675873D01*
X152180498Y-83694180D01*
X152239463Y-83804494D01*
X152318815Y-83901185D01*
X152415506Y-83980537D01*
X152525820Y-84039502D01*
X152645518Y-84075812D01*
X152770000Y-84088072D01*
X154570000Y-84088072D01*
X154694482Y-84075812D01*
X154814180Y-84039502D01*
X154924494Y-83980537D01*
X155021185Y-83901185D01*
X155100537Y-83804494D01*
X155159502Y-83694180D01*
X155195812Y-83574482D01*
X155208072Y-83450000D01*
X155208072Y-82418514D01*
X158685000Y-82418514D01*
X158685000Y-82681486D01*
X158736304Y-82939405D01*
X158836939Y-83182359D01*
X158983038Y-83401013D01*
X159168987Y-83586962D01*
X159387641Y-83733061D01*
X159630595Y-83833696D01*
X159888514Y-83885000D01*
X160151486Y-83885000D01*
X160409405Y-83833696D01*
X160652359Y-83733061D01*
X160871013Y-83586962D01*
X161056962Y-83401013D01*
X161203061Y-83182359D01*
X161303696Y-82939405D01*
X161314850Y-82883329D01*
X163807284Y-82883329D01*
X163839953Y-82991044D01*
X163950208Y-83228392D01*
X164104649Y-83439670D01*
X164297340Y-83616759D01*
X164520877Y-83752853D01*
X164766670Y-83842722D01*
X164973000Y-83720201D01*
X164973000Y-82677000D01*
X165227000Y-82677000D01*
X165227000Y-83720201D01*
X165433330Y-83842722D01*
X165679123Y-83752853D01*
X165902660Y-83616759D01*
X166095351Y-83439670D01*
X166249792Y-83228392D01*
X166360047Y-82991044D01*
X166392716Y-82883329D01*
X166269374Y-82677000D01*
X165227000Y-82677000D01*
X164973000Y-82677000D01*
X163930626Y-82677000D01*
X163807284Y-82883329D01*
X161314850Y-82883329D01*
X161355000Y-82681486D01*
X161355000Y-82418514D01*
X161314851Y-82216671D01*
X163807284Y-82216671D01*
X163930626Y-82423000D01*
X164973000Y-82423000D01*
X164973000Y-81379799D01*
X165227000Y-81379799D01*
X165227000Y-82423000D01*
X166269374Y-82423000D01*
X166392716Y-82216671D01*
X166360047Y-82108956D01*
X166249792Y-81871608D01*
X166095351Y-81660330D01*
X165902660Y-81483241D01*
X165679123Y-81347147D01*
X165433330Y-81257278D01*
X165227000Y-81379799D01*
X164973000Y-81379799D01*
X164766670Y-81257278D01*
X164520877Y-81347147D01*
X164297340Y-81483241D01*
X164104649Y-81660330D01*
X163950208Y-81871608D01*
X163839953Y-82108956D01*
X163807284Y-82216671D01*
X161314851Y-82216671D01*
X161303696Y-82160595D01*
X161203061Y-81917641D01*
X161056962Y-81698987D01*
X160871013Y-81513038D01*
X160652359Y-81366939D01*
X160409405Y-81266304D01*
X160151486Y-81215000D01*
X159888514Y-81215000D01*
X159630595Y-81266304D01*
X159387641Y-81366939D01*
X159168987Y-81513038D01*
X158983038Y-81698987D01*
X158836939Y-81917641D01*
X158736304Y-82160595D01*
X158685000Y-82418514D01*
X155208072Y-82418514D01*
X155208072Y-81650000D01*
X155195812Y-81525518D01*
X155159502Y-81405820D01*
X155100537Y-81295506D01*
X155021185Y-81198815D01*
X154924494Y-81119463D01*
X154814180Y-81060498D01*
X154694482Y-81024188D01*
X154570000Y-81011928D01*
X152770000Y-81011928D01*
X152645518Y-81024188D01*
X152525820Y-81060498D01*
X152415506Y-81119463D01*
X152318815Y-81198815D01*
X152239463Y-81295506D01*
X152180498Y-81405820D01*
X152174944Y-81424127D01*
X152108505Y-81357688D01*
X151857095Y-81189701D01*
X151577743Y-81073989D01*
X151281184Y-81015000D01*
X150978816Y-81015000D01*
X150682257Y-81073989D01*
X150460000Y-81166051D01*
X150460000Y-77944801D01*
X150721070Y-77683731D01*
X150978816Y-77735000D01*
X151281184Y-77735000D01*
X151577743Y-77676011D01*
X151857095Y-77560299D01*
X152108505Y-77392312D01*
X152174944Y-77325873D01*
X152180498Y-77344180D01*
X152239463Y-77454494D01*
X152318815Y-77551185D01*
X152415506Y-77630537D01*
X152525820Y-77689502D01*
X152645518Y-77725812D01*
X152770000Y-77738072D01*
X154570000Y-77738072D01*
X154694482Y-77725812D01*
X154814180Y-77689502D01*
X154924494Y-77630537D01*
X155021185Y-77551185D01*
X155100537Y-77454494D01*
X155159502Y-77344180D01*
X155195812Y-77224482D01*
X155208072Y-77100000D01*
X155208072Y-76068514D01*
X158685000Y-76068514D01*
X158685000Y-76331486D01*
X158736304Y-76589405D01*
X158836939Y-76832359D01*
X158983038Y-77051013D01*
X159168987Y-77236962D01*
X159387641Y-77383061D01*
X159630595Y-77483696D01*
X159888514Y-77535000D01*
X160151486Y-77535000D01*
X160409405Y-77483696D01*
X160652359Y-77383061D01*
X160871013Y-77236962D01*
X161056962Y-77051013D01*
X161203061Y-76832359D01*
X161303696Y-76589405D01*
X161314850Y-76533329D01*
X163807284Y-76533329D01*
X163839953Y-76641044D01*
X163950208Y-76878392D01*
X164104649Y-77089670D01*
X164297340Y-77266759D01*
X164520877Y-77402853D01*
X164766670Y-77492722D01*
X164973000Y-77370201D01*
X164973000Y-76327000D01*
X165227000Y-76327000D01*
X165227000Y-77370201D01*
X165433330Y-77492722D01*
X165679123Y-77402853D01*
X165902660Y-77266759D01*
X166095351Y-77089670D01*
X166249792Y-76878392D01*
X166360047Y-76641044D01*
X166392716Y-76533329D01*
X166269374Y-76327000D01*
X165227000Y-76327000D01*
X164973000Y-76327000D01*
X163930626Y-76327000D01*
X163807284Y-76533329D01*
X161314850Y-76533329D01*
X161355000Y-76331486D01*
X161355000Y-76068514D01*
X161314851Y-75866671D01*
X163807284Y-75866671D01*
X163930626Y-76073000D01*
X164973000Y-76073000D01*
X164973000Y-75029799D01*
X165227000Y-75029799D01*
X165227000Y-76073000D01*
X166269374Y-76073000D01*
X166392716Y-75866671D01*
X166360047Y-75758956D01*
X166249792Y-75521608D01*
X166095351Y-75310330D01*
X165902660Y-75133241D01*
X165679123Y-74997147D01*
X165433330Y-74907278D01*
X165227000Y-75029799D01*
X164973000Y-75029799D01*
X164766670Y-74907278D01*
X164520877Y-74997147D01*
X164297340Y-75133241D01*
X164104649Y-75310330D01*
X163950208Y-75521608D01*
X163839953Y-75758956D01*
X163807284Y-75866671D01*
X161314851Y-75866671D01*
X161303696Y-75810595D01*
X161203061Y-75567641D01*
X161056962Y-75348987D01*
X160871013Y-75163038D01*
X160652359Y-75016939D01*
X160409405Y-74916304D01*
X160151486Y-74865000D01*
X159888514Y-74865000D01*
X159630595Y-74916304D01*
X159387641Y-75016939D01*
X159168987Y-75163038D01*
X158983038Y-75348987D01*
X158836939Y-75567641D01*
X158736304Y-75810595D01*
X158685000Y-76068514D01*
X155208072Y-76068514D01*
X155208072Y-75300000D01*
X155195812Y-75175518D01*
X155159502Y-75055820D01*
X155100537Y-74945506D01*
X155021185Y-74848815D01*
X154924494Y-74769463D01*
X154814180Y-74710498D01*
X154694482Y-74674188D01*
X154570000Y-74661928D01*
X152770000Y-74661928D01*
X152645518Y-74674188D01*
X152525820Y-74710498D01*
X152415506Y-74769463D01*
X152318815Y-74848815D01*
X152239463Y-74945506D01*
X152180498Y-75055820D01*
X152174944Y-75074127D01*
X152108505Y-75007688D01*
X151857095Y-74839701D01*
X151577743Y-74723989D01*
X151281184Y-74665000D01*
X150978816Y-74665000D01*
X150682257Y-74723989D01*
X150402905Y-74839701D01*
X150151495Y-75007688D01*
X149937688Y-75221495D01*
X149769701Y-75472905D01*
X149653989Y-75752257D01*
X149595000Y-76048816D01*
X149595000Y-76351184D01*
X149646269Y-76608930D01*
X149188998Y-77066201D01*
X149160000Y-77089999D01*
X149136202Y-77118997D01*
X149136201Y-77118998D01*
X149065026Y-77205724D01*
X148994454Y-77337754D01*
X148950998Y-77481015D01*
X148936324Y-77630000D01*
X148940001Y-77667332D01*
X148940000Y-83665198D01*
X147523200Y-85081998D01*
X147523200Y-84944902D01*
X147466586Y-84660283D01*
X147355533Y-84392178D01*
X147194309Y-84150890D01*
X146989110Y-83945691D01*
X146801001Y-83820000D01*
X146989110Y-83694309D01*
X147194309Y-83489110D01*
X147355533Y-83247822D01*
X147466586Y-82979717D01*
X147523200Y-82695098D01*
X147523200Y-82404902D01*
X147466586Y-82120283D01*
X147355533Y-81852178D01*
X147194309Y-81610890D01*
X146989110Y-81405691D01*
X146801001Y-81280000D01*
X146989110Y-81154309D01*
X147194309Y-80949110D01*
X147355533Y-80707822D01*
X147466586Y-80439717D01*
X147523200Y-80155098D01*
X147523200Y-79864902D01*
X147466586Y-79580283D01*
X147355533Y-79312178D01*
X147194309Y-79070890D01*
X146989110Y-78865691D01*
X146801001Y-78740000D01*
X146989110Y-78614309D01*
X147194309Y-78409110D01*
X147355533Y-78167822D01*
X147466586Y-77899717D01*
X147523200Y-77615098D01*
X147523200Y-77324902D01*
X147466586Y-77040283D01*
X147355533Y-76772178D01*
X147194309Y-76530890D01*
X146989110Y-76325691D01*
X146747822Y-76164467D01*
X146479717Y-76053414D01*
X146195098Y-75996800D01*
X145904902Y-75996800D01*
X145640200Y-76049452D01*
X145640200Y-72174901D01*
X150211003Y-67604099D01*
X150240001Y-67580301D01*
X150334974Y-67464576D01*
X150405546Y-67332547D01*
X150449003Y-67189286D01*
X150456829Y-67109827D01*
X150535077Y-67057544D01*
X150700000Y-66892621D01*
X150864923Y-67057544D01*
X151067496Y-67192898D01*
X145960197Y-72300197D01*
X145944403Y-72319443D01*
X145932667Y-72341399D01*
X145925440Y-72365224D01*
X145923000Y-72390000D01*
X145925440Y-72414776D01*
X145932667Y-72438601D01*
X145944403Y-72460557D01*
X145960197Y-72479803D01*
X147230197Y-73749803D01*
X147249443Y-73765597D01*
X147271399Y-73777333D01*
X147295224Y-73784560D01*
X147320000Y-73787000D01*
X165047394Y-73787000D01*
X167513000Y-76252606D01*
X167513000Y-95197394D01*
X165047394Y-97663000D01*
X139700000Y-97663000D01*
X139675224Y-97665440D01*
X139651399Y-97672667D01*
X139629443Y-97684403D01*
X139610197Y-97700197D01*
X134530197Y-102780197D01*
X134514403Y-102799443D01*
X134502667Y-102821399D01*
X134495440Y-102845224D01*
X134493000Y-102870000D01*
X134493000Y-106627394D01*
X133864635Y-107255759D01*
X133827961Y-106988325D01*
X133722795Y-106683912D01*
X133629814Y-106509956D01*
X133365413Y-106414192D01*
X132409605Y-107370000D01*
X132423748Y-107384143D01*
X132244143Y-107563748D01*
X132230000Y-107549605D01*
X132215858Y-107563748D01*
X132036253Y-107384143D01*
X132050395Y-107370000D01*
X131094587Y-106414192D01*
X130830186Y-106509956D01*
X130689296Y-106799571D01*
X130607616Y-107111108D01*
X130588282Y-107432595D01*
X130632039Y-107751675D01*
X130656680Y-107823000D01*
X127301492Y-107823000D01*
X127352384Y-107628892D01*
X127371718Y-107307405D01*
X127327961Y-106988325D01*
X127222795Y-106683912D01*
X127129814Y-106509956D01*
X126865413Y-106414192D01*
X125909605Y-107370000D01*
X125923748Y-107384143D01*
X125744143Y-107563748D01*
X125730000Y-107549605D01*
X125715858Y-107563748D01*
X125536253Y-107384143D01*
X125550395Y-107370000D01*
X124594587Y-106414192D01*
X124330186Y-106509956D01*
X124189296Y-106799571D01*
X124107616Y-107111108D01*
X124090206Y-107400600D01*
X123317000Y-106627394D01*
X123317000Y-106234587D01*
X124774192Y-106234587D01*
X125730000Y-107190395D01*
X126685808Y-106234587D01*
X131274192Y-106234587D01*
X132230000Y-107190395D01*
X133185808Y-106234587D01*
X133090044Y-105970186D01*
X132800429Y-105829296D01*
X132488892Y-105747616D01*
X132167405Y-105728282D01*
X131848325Y-105772039D01*
X131543912Y-105877205D01*
X131369956Y-105970186D01*
X131274192Y-106234587D01*
X126685808Y-106234587D01*
X126590044Y-105970186D01*
X126300429Y-105829296D01*
X125988892Y-105747616D01*
X125667405Y-105728282D01*
X125348325Y-105772039D01*
X125043912Y-105877205D01*
X124869956Y-105970186D01*
X124774192Y-106234587D01*
X123317000Y-106234587D01*
X123317000Y-102708967D01*
X124095000Y-102708967D01*
X124095000Y-103031033D01*
X124157832Y-103346912D01*
X124281082Y-103644463D01*
X124460013Y-103912252D01*
X124687748Y-104139987D01*
X124955537Y-104318918D01*
X125253088Y-104442168D01*
X125568967Y-104505000D01*
X125891033Y-104505000D01*
X126206912Y-104442168D01*
X126504463Y-104318918D01*
X126772252Y-104139987D01*
X126999987Y-103912252D01*
X127178918Y-103644463D01*
X127302168Y-103346912D01*
X127365000Y-103031033D01*
X127365000Y-102708967D01*
X127302168Y-102393088D01*
X127178918Y-102095537D01*
X126999987Y-101827748D01*
X126772252Y-101600013D01*
X126504463Y-101421082D01*
X126206912Y-101297832D01*
X125891033Y-101235000D01*
X125568967Y-101235000D01*
X125253088Y-101297832D01*
X124955537Y-101421082D01*
X124687748Y-101600013D01*
X124460013Y-101827748D01*
X124281082Y-102095537D01*
X124157832Y-102393088D01*
X124095000Y-102708967D01*
X123317000Y-102708967D01*
X123317000Y-95805413D01*
X124774192Y-95805413D01*
X124869956Y-96069814D01*
X125159571Y-96210704D01*
X125471108Y-96292384D01*
X125792595Y-96311718D01*
X126111675Y-96267961D01*
X126416088Y-96162795D01*
X126590044Y-96069814D01*
X126685808Y-95805413D01*
X131274192Y-95805413D01*
X131369956Y-96069814D01*
X131659571Y-96210704D01*
X131971108Y-96292384D01*
X132292595Y-96311718D01*
X132611675Y-96267961D01*
X132916088Y-96162795D01*
X133090044Y-96069814D01*
X133185808Y-95805413D01*
X132230000Y-94849605D01*
X131274192Y-95805413D01*
X126685808Y-95805413D01*
X125730000Y-94849605D01*
X124774192Y-95805413D01*
X123317000Y-95805413D01*
X123317000Y-94732595D01*
X124088282Y-94732595D01*
X124132039Y-95051675D01*
X124237205Y-95356088D01*
X124330186Y-95530044D01*
X124594587Y-95625808D01*
X125550395Y-94670000D01*
X125909605Y-94670000D01*
X126865413Y-95625808D01*
X127129814Y-95530044D01*
X127270704Y-95240429D01*
X127352384Y-94928892D01*
X127364189Y-94732595D01*
X130588282Y-94732595D01*
X130632039Y-95051675D01*
X130737205Y-95356088D01*
X130830186Y-95530044D01*
X131094587Y-95625808D01*
X132050395Y-94670000D01*
X132409605Y-94670000D01*
X133365413Y-95625808D01*
X133629814Y-95530044D01*
X133770704Y-95240429D01*
X133852384Y-94928892D01*
X133871718Y-94607405D01*
X133827961Y-94288325D01*
X133722795Y-93983912D01*
X133629814Y-93809956D01*
X133365413Y-93714192D01*
X132409605Y-94670000D01*
X132050395Y-94670000D01*
X131094587Y-93714192D01*
X130830186Y-93809956D01*
X130689296Y-94099571D01*
X130607616Y-94411108D01*
X130588282Y-94732595D01*
X127364189Y-94732595D01*
X127371718Y-94607405D01*
X127327961Y-94288325D01*
X127222795Y-93983912D01*
X127129814Y-93809956D01*
X126865413Y-93714192D01*
X125909605Y-94670000D01*
X125550395Y-94670000D01*
X124594587Y-93714192D01*
X124330186Y-93809956D01*
X124189296Y-94099571D01*
X124107616Y-94411108D01*
X124088282Y-94732595D01*
X123317000Y-94732595D01*
X123317000Y-93534587D01*
X124774192Y-93534587D01*
X125730000Y-94490395D01*
X126685808Y-93534587D01*
X131274192Y-93534587D01*
X132230000Y-94490395D01*
X133185808Y-93534587D01*
X133090044Y-93270186D01*
X132800429Y-93129296D01*
X132488892Y-93047616D01*
X132167405Y-93028282D01*
X131848325Y-93072039D01*
X131543912Y-93177205D01*
X131369956Y-93270186D01*
X131274192Y-93534587D01*
X126685808Y-93534587D01*
X126590044Y-93270186D01*
X126300429Y-93129296D01*
X125988892Y-93047616D01*
X125667405Y-93028282D01*
X125348325Y-93072039D01*
X125043912Y-93177205D01*
X124869956Y-93270186D01*
X124774192Y-93534587D01*
X123317000Y-93534587D01*
X123317000Y-90008967D01*
X124095000Y-90008967D01*
X124095000Y-90331033D01*
X124157832Y-90646912D01*
X124281082Y-90944463D01*
X124460013Y-91212252D01*
X124687748Y-91439987D01*
X124955537Y-91618918D01*
X125253088Y-91742168D01*
X125568967Y-91805000D01*
X125891033Y-91805000D01*
X126206912Y-91742168D01*
X126504463Y-91618918D01*
X126772252Y-91439987D01*
X126999987Y-91212252D01*
X127178918Y-90944463D01*
X127302168Y-90646912D01*
X127365000Y-90331033D01*
X127365000Y-90008967D01*
X130595000Y-90008967D01*
X130595000Y-90331033D01*
X130657832Y-90646912D01*
X130781082Y-90944463D01*
X130960013Y-91212252D01*
X131187748Y-91439987D01*
X131455537Y-91618918D01*
X131753088Y-91742168D01*
X132068967Y-91805000D01*
X132391033Y-91805000D01*
X132706912Y-91742168D01*
X133004463Y-91618918D01*
X133272252Y-91439987D01*
X133499987Y-91212252D01*
X133678918Y-90944463D01*
X133802168Y-90646912D01*
X133865000Y-90331033D01*
X133865000Y-90008967D01*
X133802168Y-89693088D01*
X133678918Y-89395537D01*
X133499987Y-89127748D01*
X133272252Y-88900013D01*
X133004463Y-88721082D01*
X132706912Y-88597832D01*
X132391033Y-88535000D01*
X132068967Y-88535000D01*
X131753088Y-88597832D01*
X131455537Y-88721082D01*
X131187748Y-88900013D01*
X130960013Y-89127748D01*
X130781082Y-89395537D01*
X130657832Y-89693088D01*
X130595000Y-90008967D01*
X127365000Y-90008967D01*
X127302168Y-89693088D01*
X127178918Y-89395537D01*
X126999987Y-89127748D01*
X126772252Y-88900013D01*
X126504463Y-88721082D01*
X126206912Y-88597832D01*
X125891033Y-88535000D01*
X125568967Y-88535000D01*
X125253088Y-88597832D01*
X124955537Y-88721082D01*
X124687748Y-88900013D01*
X124460013Y-89127748D01*
X124281082Y-89395537D01*
X124157832Y-89693088D01*
X124095000Y-90008967D01*
X123317000Y-90008967D01*
X123317000Y-83105413D01*
X124624192Y-83105413D01*
X124719956Y-83369814D01*
X125009571Y-83510704D01*
X125321108Y-83592384D01*
X125642595Y-83611718D01*
X125961675Y-83567961D01*
X126266088Y-83462795D01*
X126440044Y-83369814D01*
X126535808Y-83105413D01*
X131124192Y-83105413D01*
X131219956Y-83369814D01*
X131509571Y-83510704D01*
X131821108Y-83592384D01*
X132142595Y-83611718D01*
X132461675Y-83567961D01*
X132766088Y-83462795D01*
X132940044Y-83369814D01*
X133035808Y-83105413D01*
X132080000Y-82149605D01*
X131124192Y-83105413D01*
X126535808Y-83105413D01*
X125580000Y-82149605D01*
X124624192Y-83105413D01*
X123317000Y-83105413D01*
X123317000Y-82602606D01*
X123941563Y-81978043D01*
X123938282Y-82032595D01*
X123982039Y-82351675D01*
X124087205Y-82656088D01*
X124180186Y-82830044D01*
X124444587Y-82925808D01*
X125400395Y-81970000D01*
X125386253Y-81955858D01*
X125565858Y-81776253D01*
X125580000Y-81790395D01*
X125594143Y-81776253D01*
X125773748Y-81955858D01*
X125759605Y-81970000D01*
X126715413Y-82925808D01*
X126979814Y-82830044D01*
X127120704Y-82540429D01*
X127202384Y-82228892D01*
X127214189Y-82032595D01*
X130438282Y-82032595D01*
X130482039Y-82351675D01*
X130587205Y-82656088D01*
X130680186Y-82830044D01*
X130944587Y-82925808D01*
X131900395Y-81970000D01*
X132259605Y-81970000D01*
X133215413Y-82925808D01*
X133479814Y-82830044D01*
X133620704Y-82540429D01*
X133702384Y-82228892D01*
X133721718Y-81907405D01*
X133677961Y-81588325D01*
X133572795Y-81283912D01*
X133479814Y-81109956D01*
X133215413Y-81014192D01*
X132259605Y-81970000D01*
X131900395Y-81970000D01*
X130944587Y-81014192D01*
X130680186Y-81109956D01*
X130539296Y-81399571D01*
X130457616Y-81711108D01*
X130438282Y-82032595D01*
X127214189Y-82032595D01*
X127221718Y-81907405D01*
X127177961Y-81588325D01*
X127115318Y-81407000D01*
X129540000Y-81407000D01*
X129564776Y-81404560D01*
X129588601Y-81397333D01*
X129610557Y-81385597D01*
X129629803Y-81369803D01*
X130165019Y-80834587D01*
X131124192Y-80834587D01*
X132080000Y-81790395D01*
X133035808Y-80834587D01*
X132940044Y-80570186D01*
X132650429Y-80429296D01*
X132338892Y-80347616D01*
X132017405Y-80328282D01*
X131698325Y-80372039D01*
X131393912Y-80477205D01*
X131219956Y-80570186D01*
X131124192Y-80834587D01*
X130165019Y-80834587D01*
X130899803Y-80099803D01*
X130915597Y-80080557D01*
X130927333Y-80058601D01*
X130934560Y-80034776D01*
X130937000Y-80010000D01*
X130937000Y-78639239D01*
X131037748Y-78739987D01*
X131305537Y-78918918D01*
X131603088Y-79042168D01*
X131918967Y-79105000D01*
X132241033Y-79105000D01*
X132556912Y-79042168D01*
X132854463Y-78918918D01*
X133122252Y-78739987D01*
X133349987Y-78512252D01*
X133528918Y-78244463D01*
X133652168Y-77946912D01*
X133715000Y-77631033D01*
X133715000Y-77308967D01*
X133652168Y-76993088D01*
X133528918Y-76695537D01*
X133349987Y-76427748D01*
X133122252Y-76200013D01*
X132854463Y-76021082D01*
X132556912Y-75897832D01*
X132241033Y-75835000D01*
X131918967Y-75835000D01*
X131603088Y-75897832D01*
X131305537Y-76021082D01*
X131037748Y-76200013D01*
X130937000Y-76300761D01*
X130937000Y-71675413D01*
X131274192Y-71675413D01*
X131369956Y-71939814D01*
X131659571Y-72080704D01*
X131971108Y-72162384D01*
X132292595Y-72181718D01*
X132611675Y-72137961D01*
X132916088Y-72032795D01*
X133090044Y-71939814D01*
X133185808Y-71675413D01*
X132230000Y-70719605D01*
X131274192Y-71675413D01*
X130937000Y-71675413D01*
X130937000Y-71438731D01*
X131094587Y-71495808D01*
X132050395Y-70540000D01*
X132409605Y-70540000D01*
X133365413Y-71495808D01*
X133629814Y-71400044D01*
X133770704Y-71110429D01*
X133852384Y-70798892D01*
X133871718Y-70477405D01*
X133827961Y-70158325D01*
X133722795Y-69853912D01*
X133629814Y-69679956D01*
X133365413Y-69584192D01*
X132409605Y-70540000D01*
X132050395Y-70540000D01*
X132036253Y-70525858D01*
X132215858Y-70346253D01*
X132230000Y-70360395D01*
X133185808Y-69404587D01*
X133090044Y-69140186D01*
X132800429Y-68999296D01*
X132488892Y-68917616D01*
X132167405Y-68898282D01*
X131905393Y-68934213D01*
X132132606Y-68707000D01*
X134620000Y-68707000D01*
X134644776Y-68704560D01*
X134668601Y-68697333D01*
X134690557Y-68685597D01*
X134709803Y-68669803D01*
X136664606Y-66715000D01*
X138386928Y-66715000D01*
X138399188Y-66839482D01*
X138435498Y-66959180D01*
X138494463Y-67069494D01*
X138573815Y-67166185D01*
X138670506Y-67245537D01*
X138780820Y-67304502D01*
X138900518Y-67340812D01*
X139025000Y-67353072D01*
X139414250Y-67350000D01*
X139573000Y-67191250D01*
X139573000Y-66167000D01*
X138548750Y-66167000D01*
X138390000Y-66325750D01*
X138386928Y-66715000D01*
X136664606Y-66715000D01*
X138014606Y-65365000D01*
X138386928Y-65365000D01*
X138390000Y-65754250D01*
X138548750Y-65913000D01*
X139573000Y-65913000D01*
X139573000Y-64888750D01*
X139414250Y-64730000D01*
X139025000Y-64726928D01*
X138900518Y-64739188D01*
X138780820Y-64775498D01*
X138670506Y-64834463D01*
X138573815Y-64913815D01*
X138494463Y-65010506D01*
X138435498Y-65120820D01*
X138399188Y-65240518D01*
X138386928Y-65365000D01*
X138014606Y-65365000D01*
X139752606Y-63627000D01*
X150524680Y-63627000D01*
X151211838Y-63761444D01*
%TD*%
M02*
